<?xml version="1.0" encoding="utf-8"?>
<svg viewBox="0 0 32 32" xmlns="http://www.w3.org/2000/svg">
  <defs>
    <clipPath id="68b45b042b">
      <path d="M 1.136719 0.652344 L 28.71875 0.652344 L 28.71875 28.234375 L 1.136719 28.234375 Z M 1.136719 0.652344 " clip-rule="nonzero"/>
    </clipPath>
  </defs>
  <g clip-path="url(#68b45b042b)" transform="matrix(1, 0, 0, 1, 0.71626, 2.958321)">
    <path fill="#ffffff" d="M 14.929688 28.234375 C 13.746094 28.234375 12.753906 26.925781 11.664062 26.632812 C 10.535156 26.332031 9.023438 26.957031 8.035156 26.382812 C 7.03125 25.804688 6.824219 24.175781 6.011719 23.363281 C 5.195312 22.550781 3.566406 22.339844 2.988281 21.339844 C 2.414062 20.351562 3.039062 18.835938 2.738281 17.710938 C 2.445312 16.621094 1.136719 15.625 1.136719 14.445312 C 1.136719 13.261719 2.445312 12.269531 2.738281 11.179688 C 3.039062 10.050781 2.414062 8.539062 2.988281 7.550781 C 3.566406 6.550781 5.195312 6.339844 6.011719 5.527344 C 6.824219 4.714844 7.03125 3.082031 8.035156 2.503906 C 9.023438 1.929688 10.535156 2.558594 11.664062 2.253906 C 12.753906 1.960938 13.746094 0.652344 14.929688 0.652344 C 16.109375 0.652344 17.101562 1.960938 18.195312 2.253906 C 19.320312 2.558594 20.835938 1.929688 21.820312 2.503906 C 22.824219 3.082031 23.03125 4.714844 23.847656 5.527344 C 24.660156 6.339844 26.289062 6.550781 26.867188 7.550781 C 27.441406 8.539062 26.816406 10.050781 27.117188 11.179688 C 27.410156 12.269531 28.71875 13.261719 28.71875 14.445312 C 28.71875 15.625 27.410156 16.621094 27.117188 17.710938 C 26.816406 18.835938 27.441406 20.351562 26.867188 21.339844 C 26.289062 22.339844 24.660156 22.550781 23.847656 23.363281 C 23.03125 24.175781 22.824219 25.804688 21.820312 26.382812 C 20.835938 26.957031 19.320312 26.332031 18.195312 26.632812 C 17.101562 26.925781 16.109375 28.234375 14.929688 28.234375 Z M 14.929688 28.234375 " fill-opacity="1" fill-rule="nonzero" style="stroke: rgb(0, 0, 0);"/>
  </g>
</svg>
