<svg xmlns="http://www.w3.org/2000/svg" xmlns:xlink="http://www.w3.org/1999/xlink" zoomAndPan="magnify" preserveAspectRatio="xMidYMid meet" version="1.0" viewBox="543.96 33.7 243.21 269.55"><defs><clipPath id="0d6be4907f"><path d="M 625 33.699219 L 706 33.699219 L 706 136 L 625 136 Z M 625 33.699219 " clip-rule="nonzero"/></clipPath><clipPath id="597ca51444"><path d="M 625.796875 201.496094 L 705.242188 201.496094 L 705.242188 303.246094 L 625.796875 303.246094 Z M 625.796875 201.496094 " clip-rule="nonzero"/></clipPath><clipPath id="1cd39ffb18"><path d="M 685.082031 167.613281 L 787.171875 167.613281 L 787.171875 255.308594 L 685.082031 255.308594 Z M 685.082031 167.613281 " clip-rule="nonzero"/></clipPath><clipPath id="8cc7e71c10"><path d="M 685.480469 81.710938 L 787.171875 81.710938 L 787.171875 170.402344 L 685.480469 170.402344 Z M 685.480469 81.710938 " clip-rule="nonzero"/></clipPath></defs><g clip-path="url(#0d6be4907f)"><path fill="#eff16a" d="M 705.152344 75.707031 C 703.695312 38.835938 671.984375 33.761719 665.320312 33.878906 C 664.964844 33.882812 664.617188 33.890625 664.265625 33.898438 C 657.894531 34.003906 626.085938 40.179688 625.902344 77.074219 C 625.710938 116.355469 648.371094 135.464844 648.371094 135.464844 L 666.546875 135.152344 L 684.722656 134.835938 C 684.722656 134.835938 706.707031 114.957031 705.152344 75.707031 " fill-opacity="1" fill-rule="nonzero"/></g><path fill="#1a1a1a" d="M 664.484375 45.09375 C 663.746094 45.140625 637.265625 47.1875 637.117188 77.128906 C 636.992188 102.84375 647.824219 118.300781 652.972656 124.1875 L 679.734375 123.722656 C 684.675781 117.664062 694.964844 101.839844 693.949219 76.148438 C 692.761719 46.191406 666.199219 45.097656 665.476562 45.074219 Z M 652.328125 127.117188 C 651.914062 127.117188 651.515625 126.941406 651.238281 126.636719 C 646.070312 120.902344 634.058594 104.605469 634.191406 77.117188 C 634.277344 60.121094 642.414062 51.519531 649.222656 47.296875 C 656.789062 42.609375 664.332031 42.171875 664.40625 42.171875 L 665.453125 42.15625 C 665.777344 42.152344 695.566406 43.078125 696.871094 76.035156 C 697.957031 103.5 686.519531 120.203125 681.550781 126.113281 C 681.28125 126.4375 680.878906 126.625 680.457031 126.632812 L 652.351562 127.117188 C 652.34375 127.117188 652.335938 127.117188 652.328125 127.117188 " fill-opacity="1" fill-rule="nonzero"/><path fill="#eff16a" d="M 604.828125 87.902344 C 572.121094 70.730469 551.867188 95.613281 548.632812 101.433594 C 548.460938 101.742188 548.292969 102.046875 548.121094 102.355469 C 545.03125 107.917969 534.480469 138.511719 566.390625 157.117188 C 600.359375 176.925781 628.265625 166.882812 628.265625 166.882812 L 645.898438 135.132812 C 645.898438 135.132812 639.644531 106.183594 604.828125 87.902344 " fill-opacity="1" fill-rule="nonzero"/><path fill="#1a1a1a" d="M 557.941406 107.765625 C 557.617188 108.421875 546.148438 132.347656 572.042969 147.449219 C 587.332031 156.359375 601.035156 158.230469 609.835938 158.230469 C 614.507812 158.230469 618.289062 157.714844 620.800781 157.234375 L 633.761719 133.894531 C 630.976562 126.589844 622.398438 109.78125 599.609375 97.8125 C 593.714844 94.71875 588.046875 93.152344 582.757812 93.152344 C 567.230469 93.152344 558.734375 106.398438 558.425781 106.894531 Z M 609.835938 161.152344 C 600.671875 161.152344 586.421875 159.210938 570.570312 149.96875 C 555.867188 141.398438 552.476562 130.0625 552.222656 122.0625 C 551.9375 113.175781 555.335938 106.4375 555.367188 106.375 L 555.882812 105.453125 C 555.964844 105.304688 565.367188 90.230469 582.757812 90.230469 C 588.527344 90.230469 594.652344 91.910156 600.96875 95.226562 C 625.335938 108.019531 634.105469 126.265625 636.742188 133.515625 C 636.886719 133.910156 636.851562 134.351562 636.648438 134.722656 L 623.03125 159.242188 C 622.824219 159.613281 622.464844 159.878906 622.050781 159.964844 C 619.429688 160.507812 615.183594 161.152344 609.835938 161.152344 " fill-opacity="1" fill-rule="nonzero"/><path fill="#eff16a" d="M 565.242188 180.757812 C 533.992188 200.453125 545.449219 230.414062 548.878906 236.117188 C 549.0625 236.421875 549.242188 236.71875 549.425781 237.019531 C 552.707031 242.472656 573.960938 266.898438 606.054688 248.605469 C 640.21875 229.128906 645.460938 199.980469 645.460938 199.980469 L 636.101562 184.417969 L 626.742188 168.859375 C 626.742188 168.859375 598.503906 159.789062 565.242188 180.757812 " fill-opacity="1" fill-rule="nonzero"/><path fill="#1a1a1a" d="M 582.980469 244.097656 C 588.527344 244.097656 594.417969 242.34375 600.492188 238.878906 C 622.867188 226.125 630.851562 209.039062 633.382812 201.644531 L 619.617188 178.761719 C 617.566406 178.441406 614.539062 178.105469 610.832031 178.105469 C 601.539062 178.105469 587.121094 180.207031 571.226562 190.226562 C 545.824219 206.242188 558.1875 229.773438 558.515625 230.382812 L 559.039062 231.257812 C 560.570312 233.800781 569.648438 244.097656 582.980469 244.097656 Z M 582.980469 247.019531 C 568.289062 247.015625 558.234375 235.589844 556.53125 232.761719 L 555.996094 231.867188 C 555.957031 231.804688 552.324219 225.195312 552.296875 216.28125 C 552.273438 208.277344 555.269531 196.832031 569.664062 187.757812 C 586.152344 177.367188 601.152344 175.183594 610.832031 175.183594 C 615.164062 175.183594 618.628906 175.625 620.769531 175.992188 C 621.1875 176.0625 621.554688 176.3125 621.773438 176.679688 L 636.234375 200.714844 C 636.453125 201.078125 636.503906 201.519531 636.371094 201.921875 C 633.988281 209.253906 625.859375 227.78125 601.945312 241.414062 C 595.421875 245.132812 589.042969 247.019531 582.980469 247.019531 " fill-opacity="1" fill-rule="nonzero"/><g clip-path="url(#597ca51444)"><path fill="#eff16a" d="M 625.980469 261.417969 C 627.441406 298.285156 659.152344 303.359375 665.816406 303.246094 C 666.167969 303.238281 666.515625 303.230469 666.871094 303.226562 C 673.242188 303.117188 705.050781 296.945312 705.230469 260.046875 C 705.421875 220.769531 682.765625 201.65625 682.765625 201.65625 L 664.585938 201.972656 L 646.410156 202.285156 C 646.410156 202.285156 624.429688 222.167969 625.980469 261.417969 " fill-opacity="1" fill-rule="nonzero"/></g><path fill="#1a1a1a" d="M 651.402344 213.398438 C 646.460938 219.460938 636.171875 235.285156 637.1875 260.972656 C 637.683594 273.480469 642.527344 282.488281 651.589844 287.757812 C 658.46875 291.757812 665.230469 292.035156 665.597656 292.046875 L 666.652344 292.03125 C 667.386719 291.984375 693.871094 289.933594 694.015625 259.992188 C 694.140625 234.269531 683.316406 218.820312 678.167969 212.9375 Z M 665.589844 294.96875 C 665.292969 294.96875 635.570312 294.046875 634.265625 261.089844 C 633.175781 233.625 644.613281 216.917969 649.582031 211.011719 C 649.855469 210.6875 650.253906 210.496094 650.679688 210.492188 L 678.789062 210.003906 C 678.796875 210.003906 678.808594 210.003906 678.816406 210.003906 C 679.230469 210.003906 679.625 210.179688 679.902344 210.488281 C 685.070312 216.214844 697.078125 232.511719 696.941406 260.007812 C 696.859375 277.003906 688.722656 285.601562 681.910156 289.824219 C 674.347656 294.515625 666.800781 294.949219 666.730469 294.949219 L 665.613281 294.96875 C 665.605469 294.96875 665.597656 294.96875 665.589844 294.96875 " fill-opacity="1" fill-rule="nonzero"/><g clip-path="url(#1cd39ffb18)"><path fill="#eff16a" d="M 726.308594 249.222656 C 759.015625 266.394531 779.269531 241.511719 782.503906 235.691406 C 782.675781 235.378906 782.84375 235.074219 783.015625 234.765625 C 786.105469 229.203125 796.65625 198.609375 764.746094 180.003906 C 730.773438 160.199219 702.871094 170.238281 702.871094 170.238281 L 685.238281 201.988281 C 685.238281 201.988281 691.492188 230.941406 726.308594 249.222656 " fill-opacity="1" fill-rule="nonzero"/></g><path fill="#1a1a1a" d="M 697.371094 203.230469 C 700.15625 210.535156 708.734375 227.34375 731.527344 239.3125 C 737.417969 242.40625 743.085938 243.972656 748.378906 243.972656 L 748.382812 243.972656 C 763.910156 243.972656 772.402344 230.71875 772.710938 230.226562 L 773.195312 229.359375 C 773.519531 228.703125 784.988281 204.777344 759.089844 189.675781 C 743.804688 180.765625 730.101562 178.894531 721.296875 178.894531 C 716.625 178.894531 712.847656 179.40625 710.332031 179.890625 Z M 748.382812 246.894531 L 748.378906 246.894531 C 742.609375 246.894531 736.480469 245.210938 730.164062 241.894531 C 705.800781 229.101562 697.03125 210.859375 694.390625 203.609375 C 694.246094 203.210938 694.28125 202.769531 694.488281 202.402344 L 708.105469 177.882812 C 708.3125 177.507812 708.667969 177.246094 709.085938 177.160156 C 711.707031 176.617188 715.953125 175.972656 721.296875 175.972656 C 730.464844 175.972656 744.714844 177.910156 760.566406 187.152344 C 775.265625 195.722656 778.65625 207.058594 778.910156 215.058594 C 779.195312 223.953125 775.800781 230.6875 775.765625 230.75 L 775.253906 231.671875 C 775.171875 231.820312 765.78125 246.894531 748.382812 246.894531 " fill-opacity="1" fill-rule="nonzero"/><g clip-path="url(#8cc7e71c10)"><path fill="#eff16a" d="M 765.894531 156.367188 C 797.140625 136.667969 785.6875 106.710938 782.253906 101.003906 C 782.070312 100.703125 781.894531 100.40625 781.710938 100.101562 C 778.429688 94.648438 757.171875 70.226562 725.082031 88.519531 C 690.917969 107.992188 685.671875 137.144531 685.671875 137.144531 L 695.035156 152.703125 L 704.394531 168.265625 C 704.394531 168.265625 732.628906 177.335938 765.894531 156.367188 " fill-opacity="1" fill-rule="nonzero"/></g><path fill="#1a1a1a" d="M 711.519531 158.359375 C 713.570312 158.683594 716.597656 159.015625 720.300781 159.015625 L 720.304688 159.015625 C 729.597656 159.015625 744.015625 156.914062 759.90625 146.898438 C 785.316406 130.878906 772.949219 107.351562 772.621094 106.738281 L 772.09375 105.867188 C 770.5625 103.320312 761.488281 93.027344 748.15625 93.027344 C 742.609375 93.027344 736.714844 94.78125 730.640625 98.242188 C 708.269531 110.996094 700.28125 128.085938 697.753906 135.476562 Z M 720.304688 161.9375 L 720.300781 161.9375 C 715.972656 161.9375 712.511719 161.5 710.367188 161.132812 C 709.945312 161.058594 709.578125 160.808594 709.359375 160.445312 L 694.898438 136.40625 C 694.683594 136.042969 694.632812 135.605469 694.761719 135.203125 C 697.144531 127.871094 705.273438 109.339844 729.191406 95.707031 C 735.714844 91.988281 742.09375 90.105469 748.15625 90.105469 C 762.847656 90.105469 772.902344 101.535156 774.605469 104.363281 L 775.140625 105.257812 C 775.292969 105.511719 789.371094 131.777344 761.46875 149.367188 C 744.984375 159.757812 729.984375 161.9375 720.304688 161.9375 " fill-opacity="1" fill-rule="nonzero"/><path fill="#eff16a" d="M 736.410156 168.5625 C 736.410156 207.628906 704.691406 239.300781 665.566406 239.300781 C 626.441406 239.300781 594.726562 207.628906 594.726562 168.5625 C 594.726562 129.492188 626.441406 97.824219 665.566406 97.824219 C 704.691406 97.824219 736.410156 129.492188 736.410156 168.5625 " fill-opacity="1" fill-rule="nonzero"/><path fill="#1a1a1a" d="M 665.566406 99.285156 C 627.3125 99.285156 596.1875 130.363281 596.1875 168.5625 C 596.1875 206.761719 627.3125 237.839844 665.566406 237.839844 C 703.824219 237.839844 734.945312 206.761719 734.945312 168.5625 C 734.945312 130.363281 703.824219 99.285156 665.566406 99.285156 Z M 665.566406 240.761719 C 646.253906 240.761719 628.097656 233.25 614.441406 219.613281 C 600.785156 205.976562 593.261719 187.847656 593.261719 168.5625 C 593.261719 149.277344 600.785156 131.144531 614.441406 117.507812 C 628.097656 103.871094 646.253906 96.363281 665.566406 96.363281 C 684.882812 96.363281 703.039062 103.871094 716.695312 117.507812 C 730.351562 131.144531 737.871094 149.277344 737.871094 168.5625 C 737.871094 187.847656 730.351562 205.976562 716.695312 219.613281 C 703.039062 233.25 684.882812 240.761719 665.566406 240.761719 " fill-opacity="1" fill-rule="nonzero"/><path fill="#1a1a1a" d="M 694.761719 190.589844 C 689.730469 190.589844 686.519531 187.257812 685.355469 184.996094 C 684.984375 184.277344 685.269531 183.398438 685.984375 183.03125 C 686.703125 182.660156 687.582031 182.941406 687.953125 183.652344 C 688.09375 183.921875 691.285156 189.738281 698.660156 186.871094 C 699.414062 186.574219 700.261719 186.949219 700.554688 187.699219 C 700.847656 188.453125 700.476562 189.296875 699.722656 189.589844 C 697.914062 190.296875 696.253906 190.589844 694.761719 190.589844 " fill-opacity="1" fill-rule="nonzero"/><path fill="#1a1a1a" d="M 636.375 190.589844 C 634.878906 190.589844 633.222656 190.296875 631.410156 189.589844 C 630.660156 189.296875 630.285156 188.453125 630.578125 187.699219 C 630.871094 186.949219 631.722656 186.574219 632.472656 186.871094 C 639.863281 189.742188 643.050781 183.902344 643.183594 183.652344 C 643.558594 182.941406 644.441406 182.664062 645.15625 183.035156 C 645.867188 183.40625 646.148438 184.28125 645.78125 184.996094 C 644.613281 187.257812 641.40625 190.589844 636.375 190.589844 " fill-opacity="1" fill-rule="nonzero"/><path fill="#1a1a1a" d="M 665.566406 208.445312 C 653.574219 208.445312 646.671875 203.316406 642.988281 199.007812 C 638.988281 194.332031 637.855469 189.667969 637.808594 189.46875 C 637.625 188.683594 638.113281 187.898438 638.898438 187.714844 C 639.683594 187.53125 640.472656 188.015625 640.65625 188.796875 C 640.671875 188.855469 641.71875 193.074219 645.300781 197.210938 C 650.070312 202.730469 656.890625 205.527344 665.566406 205.527344 C 674.246094 205.527344 681.0625 202.730469 685.835938 197.210938 C 689.421875 193.066406 690.46875 188.839844 690.476562 188.796875 C 690.667969 188.015625 691.453125 187.53125 692.238281 187.714844 C 693.023438 187.902344 693.511719 188.6875 693.324219 189.46875 C 693.277344 189.667969 692.148438 194.332031 688.148438 199.007812 C 684.464844 203.316406 677.558594 208.445312 665.566406 208.445312 " fill-opacity="1" fill-rule="nonzero"/><path fill="#1a1a1a" d="M 689.648438 160.179688 C 682.710938 160.179688 678.714844 156.8125 676.585938 153.988281 C 674.300781 150.957031 673.652344 147.925781 673.625 147.796875 C 673.460938 147.007812 673.972656 146.234375 674.761719 146.070312 C 675.550781 145.90625 676.324219 146.414062 676.488281 147.203125 C 676.582031 147.621094 678.769531 157.257812 689.648438 157.257812 C 700.527344 157.257812 702.714844 147.609375 702.800781 147.199219 C 702.972656 146.414062 703.746094 145.90625 704.535156 146.074219 C 705.324219 146.238281 705.828125 147.007812 705.667969 147.796875 C 705.640625 147.925781 704.992188 150.957031 702.707031 153.988281 C 700.578125 156.8125 696.582031 160.179688 689.648438 160.179688 " fill-opacity="1" fill-rule="nonzero"/><path fill="#1a1a1a" d="M 641.488281 160.179688 C 634.550781 160.179688 630.558594 156.8125 628.429688 153.988281 C 626.144531 150.957031 625.496094 147.925781 625.46875 147.796875 C 625.304688 147.007812 625.8125 146.234375 626.605469 146.070312 C 627.394531 145.90625 628.167969 146.414062 628.332031 147.203125 C 628.421875 147.609375 630.609375 157.257812 641.488281 157.257812 C 652.371094 157.257812 654.558594 147.609375 654.644531 147.199219 C 654.8125 146.414062 655.589844 145.90625 656.378906 146.074219 C 657.167969 146.238281 657.671875 147.007812 657.507812 147.796875 C 657.484375 147.925781 656.835938 150.957031 654.550781 153.988281 C 652.417969 156.8125 648.425781 160.179688 641.488281 160.179688 " fill-opacity="1" fill-rule="nonzero"/></svg>
