<svg xmlns="http://www.w3.org/2000/svg" xmlns:xlink="http://www.w3.org/1999/xlink" zoomAndPan="magnify" preserveAspectRatio="xMidYMid meet" version="1.0" viewBox="3.05 0.1 75.74 75"><defs><clipPath id="b96675df2c"><path d="M 3.054688 12 L 78.796875 12 L 78.796875 74.898438 L 3.054688 74.898438 Z M 3.054688 12 " clip-rule="nonzero"/></clipPath><clipPath id="ff11eed5e4"><path d="M 25 12 L 78.796875 12 L 78.796875 74.898438 L 25 74.898438 Z M 25 12 " clip-rule="nonzero"/></clipPath><clipPath id="5cf8a53ab1"><path d="M 31 55 L 42 55 L 42 74.898438 L 31 74.898438 Z M 31 55 " clip-rule="nonzero"/></clipPath><clipPath id="db0ec27385"><path d="M 19 12 L 78.796875 12 L 78.796875 50 L 19 50 Z M 19 12 " clip-rule="nonzero"/></clipPath><clipPath id="d418e95cf4"><path d="M 47 0.101562 L 54 0.101562 L 54 7 L 47 7 Z M 47 0.101562 " clip-rule="nonzero"/></clipPath><clipPath id="192c981f5d"><path d="M 3.054688 0.101562 L 15 0.101562 L 15 13 L 3.054688 13 Z M 3.054688 0.101562 " clip-rule="nonzero"/></clipPath></defs><g clip-path="url(#b96675df2c)"><path fill="#cade66" d="M 78.3125 12.550781 L 4.691406 37.015625 C 3.460938 37.417969 3.332031 39.113281 4.484375 39.710938 L 21.175781 48.222656 L 31.164062 74.085938 C 31.398438 74.695312 31.960938 75.039062 32.546875 75.039062 C 32.875 75.039062 33.210938 74.925781 33.496094 74.691406 L 50.140625 62.976562 L 68.03125 72.105469 C 68.246094 72.214844 68.46875 72.261719 68.695312 72.261719 C 69.390625 72.261719 70.035156 71.753906 70.144531 70.996094 Z M 78.3125 12.550781 " fill-opacity="1" fill-rule="evenodd"/></g><g clip-path="url(#ff11eed5e4)"><path fill="#79853d" d="M 78.304688 12.554688 L 25.238281 58.746094 L 31.085938 73.882812 C 31.242188 74.253906 31.785156 74.839844 32.621094 74.839844 C 33.070312 74.839844 33.605469 74.671875 34.210938 74.195312 L 50.140625 62.980469 L 40.414062 57.28125 Z M 78.304688 12.554688 " fill-opacity="1" fill-rule="evenodd"/></g><g clip-path="url(#5cf8a53ab1)"><path fill="#171219" d="M 40.417969 55.753906 C 39.847656 55.753906 39.300781 56.070312 39.042969 56.617188 L 31.234375 72.902344 C 30.757812 73.921875 31.492188 75.09375 32.613281 75.097656 C 33.199219 75.097656 33.742188 74.761719 33.996094 74.226562 L 41.789062 57.945312 C 42.164062 57.183594 41.839844 56.265625 41.078125 55.90625 C 40.867188 55.800781 40.636719 55.753906 40.417969 55.753906 Z M 40.417969 55.753906 " fill-opacity="1" fill-rule="evenodd"/></g><g clip-path="url(#db0ec27385)"><path fill="#171219" d="M 77.25 12.277344 C 76.976562 12.277344 76.691406 12.355469 76.4375 12.515625 L 20.382812 46.421875 C 19.058594 47.214844 19.628906 49.261719 21.183594 49.261719 C 21.460938 49.261719 21.734375 49.183594 21.964844 49.035156 L 78.023438 15.132812 C 78.761719 14.699219 79.003906 13.746094 78.5625 13.019531 C 78.273438 12.542969 77.769531 12.277344 77.25 12.277344 Z M 77.25 12.277344 " fill-opacity="1" fill-rule="evenodd"/></g><path fill="#171219" d="M 63 58.355469 C 62.496094 58.355469 62.078125 58.761719 62.078125 59.265625 L 62.078125 61.273438 C 62.078125 61.777344 62.496094 62.195312 63 62.195312 C 63.507812 62.195312 63.925781 61.777344 63.925781 61.273438 L 63.925781 59.265625 C 63.925781 58.761719 63.507812 58.355469 63 58.355469 Z M 63 58.355469 " fill-opacity="1" fill-rule="evenodd"/><path fill="#171219" d="M 66.335938 50.546875 C 65.839844 50.546875 65.429688 50.941406 65.414062 51.429688 L 65.414062 53.441406 C 65.414062 53.945312 65.824219 54.363281 66.335938 54.363281 C 66.839844 54.363281 67.246094 53.945312 67.246094 53.441406 L 67.246094 51.429688 C 67.230469 50.941406 66.824219 50.546875 66.335938 50.546875 Z M 66.335938 50.546875 " fill-opacity="1" fill-rule="evenodd"/><path fill="#171219" d="M 56.835938 53.203125 C 56.328125 53.203125 55.914062 53.617188 55.914062 54.121094 L 55.914062 56.121094 C 55.914062 56.636719 56.328125 57.042969 56.835938 57.042969 C 57.335938 57.042969 57.75 56.636719 57.75 56.121094 L 57.75 54.121094 C 57.75 53.617188 57.335938 53.203125 56.835938 53.203125 Z M 56.835938 53.203125 " fill-opacity="1" fill-rule="evenodd"/><path fill="#f2f7d9" d="M 27.640625 33.738281 C 27.476562 33.738281 27.3125 33.765625 27.144531 33.820312 L 26.484375 34.046875 C 25.777344 34.289062 25.347656 35 25.464844 35.738281 C 25.582031 36.472656 26.214844 37.019531 26.964844 37.019531 L 26.972656 37.019531 C 27.140625 37.019531 27.304688 36.996094 27.464844 36.945312 L 28.128906 36.722656 C 28.921875 36.449219 29.355469 35.585938 29.085938 34.785156 C 28.871094 34.144531 28.273438 33.738281 27.640625 33.738281 Z M 27.640625 33.738281 " fill-opacity="1" fill-rule="evenodd"/><path fill="#f2f7d9" d="M 21.171875 35.910156 C 21.011719 35.910156 20.847656 35.9375 20.691406 35.992188 L 16.644531 37.355469 C 15.9375 37.597656 15.5 38.308594 15.625 39.0625 C 15.746094 39.796875 16.386719 40.339844 17.128906 40.339844 L 17.140625 40.339844 C 17.304688 40.339844 17.46875 40.3125 17.628906 40.261719 L 21.664062 38.890625 C 22.464844 38.628906 22.890625 37.757812 22.628906 36.960938 C 22.410156 36.316406 21.8125 35.910156 21.171875 35.910156 Z M 21.171875 35.910156 " fill-opacity="1" fill-rule="evenodd"/><g clip-path="url(#d418e95cf4)"><path fill="#171219" d="M 50.335938 0.84375 C 47.8125 0.84375 46.546875 3.898438 48.335938 5.6875 C 48.871094 6.226562 49.59375 6.511719 50.332031 6.511719 C 50.699219 6.511719 51.0625 6.441406 51.414062 6.296875 C 52.476562 5.855469 53.167969 4.820312 53.167969 3.679688 C 53.167969 2.113281 51.894531 0.84375 50.335938 0.84375 Z M 50.335938 0.84375 " fill-opacity="1" fill-rule="evenodd"/></g><path fill="#171219" d="M 18.457031 16.058594 C 17.914062 16.058594 17.421875 16.433594 17.289062 16.992188 C 17.105469 17.796875 17.746094 18.46875 18.464844 18.46875 C 18.671875 18.46875 18.886719 18.40625 19.089844 18.28125 C 20.003906 17.71875 19.792969 16.34375 18.742188 16.097656 C 18.644531 16.070312 18.550781 16.058594 18.457031 16.058594 Z M 18.457031 16.058594 " fill-opacity="1" fill-rule="evenodd"/><path fill="#cade66" d="M 37.765625 8.175781 C 37.597656 8.175781 37.441406 8.265625 37.386719 8.460938 L 36.421875 11.167969 C 36.382812 11.28125 36.296875 11.375 36.191406 11.425781 L 33.789062 12.515625 C 33.449219 12.660156 33.449219 13.199219 33.789062 13.355469 L 36.191406 14.441406 C 36.296875 14.488281 36.382812 14.582031 36.421875 14.691406 L 37.386719 17.402344 C 37.441406 17.59375 37.597656 17.6875 37.765625 17.6875 C 37.921875 17.6875 38.085938 17.59375 38.140625 17.402344 L 39.097656 14.691406 C 39.144531 14.582031 39.214844 14.488281 39.324219 14.441406 L 41.738281 13.355469 C 42.078125 13.199219 42.078125 12.660156 41.738281 12.515625 L 39.324219 11.4375 C 39.214844 11.386719 39.144531 11.28125 39.097656 11.179688 L 38.140625 8.46875 L 38.140625 8.460938 C 38.085938 8.265625 37.921875 8.175781 37.765625 8.175781 Z M 37.765625 8.175781 " fill-opacity="1" fill-rule="evenodd"/><g clip-path="url(#192c981f5d)"><path fill="#cade66" d="M 8.875 0.101562 C 8.65625 0.101562 8.433594 0.230469 8.359375 0.488281 L 7.03125 4.144531 C 6.984375 4.292969 6.867188 4.417969 6.71875 4.484375 L 3.410156 5.945312 C 2.945312 6.148438 2.945312 6.882812 3.410156 7.085938 L 6.71875 8.546875 C 6.867188 8.613281 6.976562 8.738281 7.03125 8.890625 L 8.359375 12.542969 C 8.433594 12.800781 8.65625 12.925781 8.875 12.925781 C 9.097656 12.925781 9.316406 12.800781 9.398438 12.542969 L 10.714844 8.886719 C 10.765625 8.738281 10.882812 8.613281 11.03125 8.546875 L 14.34375 7.078125 C 14.808594 6.871094 14.808594 6.148438 14.34375 5.945312 L 11.03125 4.480469 C 10.882812 4.410156 10.765625 4.289062 10.714844 4.132812 L 9.398438 0.488281 C 9.316406 0.230469 9.097656 0.101562 8.875 0.101562 Z M 8.875 0.101562 " fill-opacity="1" fill-rule="evenodd"/></g></svg>
