<svg xmlns="http://www.w3.org/2000/svg" xmlns:xlink="http://www.w3.org/1999/xlink" width="1200" zoomAndPan="magnify" viewBox="0 0 900 1349.999938" height="1800" preserveAspectRatio="xMidYMid meet" version="1.0"><defs><clipPath id="744449f7fc"><path d="M 179 284 L 835 284 L 835 1043 L 179 1043 Z M 179 284 " clip-rule="nonzero"/></clipPath><clipPath id="07dd8e6300"><path d="M 223.644531 240.441406 L 932.003906 399.503906 L 772.613281 1109.328125 L 64.253906 950.265625 Z M 223.644531 240.441406 " clip-rule="nonzero"/></clipPath><clipPath id="854cc02091"><path d="M 223.644531 240.441406 L 932.003906 399.503906 L 772.613281 1109.328125 L 64.253906 950.265625 Z M 223.644531 240.441406 " clip-rule="nonzero"/></clipPath><clipPath id="2e8fa5a98d"><path d="M 188 287 L 823 287 L 823 1039 L 188 1039 Z M 188 287 " clip-rule="nonzero"/></clipPath><clipPath id="e5524cdecb"><path d="M 223.644531 240.441406 L 932.003906 399.503906 L 772.613281 1109.328125 L 64.253906 950.265625 Z M 223.644531 240.441406 " clip-rule="nonzero"/></clipPath><clipPath id="38eab4265b"><path d="M 223.644531 240.441406 L 932.003906 399.503906 L 772.613281 1109.328125 L 64.253906 950.265625 Z M 223.644531 240.441406 " clip-rule="nonzero"/></clipPath><clipPath id="5f851b8323"><path d="M 183 320 L 831 320 L 831 917 L 183 917 Z M 183 320 " clip-rule="nonzero"/></clipPath><clipPath id="ea8e2b5c88"><path d="M 223.644531 240.441406 L 932.003906 399.503906 L 772.613281 1109.328125 L 64.253906 950.265625 Z M 223.644531 240.441406 " clip-rule="nonzero"/></clipPath><clipPath id="bb2d602f0c"><path d="M 223.644531 240.441406 L 932.003906 399.503906 L 772.613281 1109.328125 L 64.253906 950.265625 Z M 223.644531 240.441406 " clip-rule="nonzero"/></clipPath><clipPath id="ebe76eaebc"><path d="M 204 304 L 807 304 L 807 1022 L 204 1022 Z M 204 304 " clip-rule="nonzero"/></clipPath><clipPath id="306adf71aa"><path d="M 223.644531 240.441406 L 932.003906 399.503906 L 772.613281 1109.328125 L 64.253906 950.265625 Z M 223.644531 240.441406 " clip-rule="nonzero"/></clipPath><clipPath id="46c9d4897c"><path d="M 223.644531 240.441406 L 932.003906 399.503906 L 772.613281 1109.328125 L 64.253906 950.265625 Z M 223.644531 240.441406 " clip-rule="nonzero"/></clipPath></defs><rect x="-90" width="1080" fill="#ffffff" y="-134.999994" height="1619.999926" fill-opacity="1"/><rect x="-90" width="1080" fill="#ffffff" y="-134.999994" height="1619.999926" fill-opacity="1"/><rect x="-90" width="1080" fill="#ffffff" y="-134.999994" height="1619.999926" fill-opacity="1"/><rect x="-90" width="1080" fill="#fef0ec" y="-134.999994" height="1619.999926" fill-opacity="1"/><path fill="#fddcd8" d="M 862.921875 1289.34375 C 862.976562 1289.34375 863.03125 1289.355469 863.085938 1289.355469 C 863.085938 1289.417969 863.074219 1289.472656 863.074219 1289.527344 L 862.921875 1289.34375 " fill-opacity="1" fill-rule="nonzero"/><path fill="#fddcd8" d="M 1331.34375 1289.847656 L 1331.34375 1476.671875 L 1152.558594 1476.671875 C 1153.332031 1456.832031 1152.726562 1436.964844 1151.144531 1417.078125 C 1148.894531 1388.761719 1144.175781 1360.773438 1139.925781 1332.722656 C 1138.664062 1324.308594 1137.871094 1315.832031 1136.871094 1307.382812 C 1136.492188 1304.222656 1136.175781 1301.058594 1135.769531 1297.308594 C 1133.277344 1297.308594 1131.054688 1297.296875 1128.835938 1297.320312 C 1097.234375 1297.742188 1065.625 1298.402344 1034.011719 1298.519531 C 982.296875 1298.699219 930.691406 1295.949219 879.214844 1291.179688 C 873.832031 1290.675781 868.457031 1289.96875 863.085938 1289.355469 C 867 1232.375 876.011719 1176.066406 885.449219 1119.804688 C 890.195312 1091.472656 894.65625 1063.082031 899.238281 1034.722656 C 899.371094 1033.847656 899.402344 1032.972656 899.457031 1032.085938 C 899.457031 1032.03125 899.46875 1031.964844 899.46875 1031.910156 L 899.652344 1031.910156 C 957.601562 1029.449219 1015.550781 1031.058594 1073.5 1031.417969 C 1105.550781 1031.628906 1137.59375 1031.824219 1169.636719 1032.019531 C 1157.460938 1074.195312 1149.144531 1117.15625 1143.160156 1160.582031 C 1137.289062 1203.152344 1133.625 1245.898438 1135.648438 1288.957031 C 1135.746094 1291.039062 1135.886719 1293.105469 1136.066406 1295.1875 C 1136.09375 1295.535156 1136.347656 1295.863281 1136.675781 1296.597656 C 1137.898438 1296.714844 1139.34375 1296.960938 1140.789062 1296.949219 C 1177.492188 1296.378906 1214.199219 1295.894531 1250.910156 1295.132812 C 1277.8125 1294.574219 1304.648438 1292.953125 1331.34375 1289.847656 " fill-opacity="1" fill-rule="nonzero"/><path fill="#fddcd8" d="M 580.941406 1332.84375 C 572.609375 1336.234375 564.726562 1339.375 556.882812 1342.613281 C 526.089844 1355.28125 495.339844 1368.015625 463.40625 1377.632812 C 432.292969 1386.988281 400.667969 1393.398438 368.167969 1394.964844 C 341.75 1396.222656 315.621094 1393.839844 289.800781 1388.082031 C 288.382812 1387.761719 286.925781 1387.566406 284.847656 1387.207031 C 285.164062 1389.285156 285.285156 1390.90625 285.664062 1392.46875 C 292.910156 1422.140625 304.390625 1450.183594 319.359375 1476.671875 L 125.730469 1476.671875 C 118.722656 1452.347656 112.71875 1427.777344 108.507812 1402.730469 C 103.238281 1371.496094 100.644531 1340.074219 101.203125 1308.394531 C 101.226562 1307.273438 101.367188 1306.148438 101.507812 1304.179688 C 103.65625 1305.023438 105.5625 1305.621094 107.308594 1306.507812 C 125.054688 1315.429688 142.878906 1324.199219 160.464844 1333.414062 C 183.765625 1345.621094 206.808594 1358.289062 231.03125 1368.628906 C 246.890625 1375.402344 263.0625 1381.210938 279.761719 1385.523438 C 280.84375 1385.804688 281.972656 1385.972656 283.554688 1386.289062 C 283.457031 1384.789062 283.535156 1383.53125 283.292969 1382.335938 C 274.25 1339.558594 274.839844 1296.683594 282.113281 1253.742188 C 288.191406 1217.847656 298.5625 1183.078125 310.21875 1148.648438 C 310.570312 1147.640625 310.796875 1146.582031 311.070312 1145.542969 C 311.070312 1145.503906 311.082031 1145.460938 311.101562 1145.417969 C 311.148438 1145.449219 311.191406 1145.472656 311.246094 1145.503906 C 339.625 1160.039062 369.824219 1166.164062 401.597656 1165.300781 C 430.203125 1164.523438 457.894531 1158.558594 485.246094 1150.691406 C 514.902344 1142.160156 543.773438 1131.335938 572.566406 1120.265625 C 574.292969 1119.597656 576.042969 1119 578.722656 1118.015625 C 573.167969 1154.238281 568.914062 1189.835938 568.78125 1225.8125 C 568.640625 1261.914062 573.988281 1297.382812 580.941406 1332.84375 " fill-opacity="1" fill-rule="nonzero"/><path fill="#fddcd8" d="M 166.785156 802.746094 C 166.796875 802.691406 166.796875 802.636719 166.808594 802.574219 L 166.894531 802.574219 L 166.882812 802.605469 C 166.839844 802.648438 166.785156 802.746094 166.785156 802.746094 " fill-opacity="1" fill-rule="nonzero"/><path fill="#fddcd8" d="M 364.9375 38.183594 L 364.9375 38.359375 C 364.882812 38.359375 364.808594 38.347656 364.753906 38.347656 C 364.796875 38.304688 364.9375 38.183594 364.9375 38.183594 " fill-opacity="1" fill-rule="nonzero"/><path fill="#fddcd8" d="M 436.03125 592.6875 C 436.042969 592.632812 436.058594 592.589844 436.058594 592.535156 C 436.097656 592.546875 436.15625 592.546875 436.199219 592.566406 L 436.03125 592.6875 " fill-opacity="1" fill-rule="nonzero"/><path fill="#fddcd8" d="M 1189.667969 799.523438 C 1186.890625 799.707031 1184.683594 799.882812 1182.476562 799.96875 C 1143.128906 801.34375 1103.789062 802.636719 1064.457031 804.074219 C 1015.089844 805.878906 965.738281 807.792969 916.382812 809.628906 C 914.21875 809.707031 912.035156 809.433594 909.855469 809.324219 C 909.882812 790.285156 909.773438 771.25 910 752.210938 C 910.304688 727.585938 912.382812 703.121094 917.171875 678.910156 C 922.726562 650.8125 931.183594 623.585938 941.398438 596.867188 C 942.164062 594.878906 942.785156 592.839844 943.703125 590.175781 C 935.820312 591.164062 928.875 591.898438 921.976562 592.910156 C 877.425781 599.40625 832.914062 606.21875 788.328125 612.378906 C 766.207031 615.445312 743.953125 617.347656 721.753906 619.703125 C 719.421875 619.953125 717.039062 619.730469 714.121094 619.730469 C 715.050781 617.21875 715.726562 615.292969 716.480469 613.390625 C 730.085938 579.035156 741.316406 543.972656 747.996094 507.566406 C 755.019531 469.28125 756.671875 430.917969 749.628906 392.453125 C 748.246094 384.90625 746.480469 377.417969 744.871094 369.828125 C 742.75 370.113281 741.445312 370.253906 740.148438 370.492188 C 720.40625 373.949219 700.734375 377.957031 680.898438 380.757812 C 652.144531 384.828125 623.199219 385.460938 594.230469 383.328125 C 562.769531 380.996094 532.003906 374.917969 501.75 366.164062 C 478.859375 359.53125 455.980469 352.828125 433.089844 346.183594 C 431.230469 345.640625 429.296875 345.320312 426.882812 344.796875 C 427.285156 347.015625 427.480469 348.308594 427.753906 349.566406 C 430.335938 361.777344 433.070312 373.960938 435.519531 386.195312 C 444.792969 432.75 450.261719 479.605469 446.246094 527.167969 C 444.386719 549.1875 441.097656 571.015625 436.058594 592.535156 C 392.574219 584.503906 348.832031 578.378906 304.890625 573.511719 C 261.464844 568.683594 218.207031 562.761719 175.128906 555.53125 C 173.183594 555.195312 171.199219 555.152344 169.171875 554.976562 C 169.101562 556.265625 169.015625 556.835938 169.058594 557.375 C 169.1875 558.695312 169.324219 560.011719 169.53125 561.3125 C 176.179688 603.34375 177.152344 645.582031 174.417969 687.980469 C 172.058594 724.570312 169.855469 761.175781 167.550781 797.761719 C 167.449219 799.386719 167.078125 800.964844 166.808594 802.574219 C 137.390625 801.078125 107.949219 799.859375 78.542969 798 C 52.515625 796.347656 26.535156 793.972656 0.519531 791.960938 C -27.171875 789.839844 -54.871094 787.332031 -82.605469 785.777344 C -118.203125 783.789062 -153.859375 782.597656 -189.492188 781.074219 C -187.871094 773.175781 -186.59375 765.210938 -184.550781 757.429688 C -178.335938 733.8125 -169.433594 711.097656 -160.839844 688.277344 C -148.191406 654.667969 -135.972656 620.914062 -127.035156 586.070312 C -120.914062 562.230469 -116.34375 538.117188 -114.40625 513.554688 C -114.207031 511.171875 -113.816406 508.796875 -113.542969 506.410156 C -97.390625 508.050781 -81.183594 509.171875 -65.128906 511.476562 C -15.84375 518.566406 32.789062 529.277344 81.667969 538.574219 C 109 543.761719 136.394531 548.621094 163.757812 553.597656 C 164.992188 553.824219 166.269531 553.796875 168.253906 553.921875 C 167.589844 549.757812 167.058594 546.082031 166.394531 542.4375 C 159.828125 506.289062 150.238281 470.875 140.285156 435.570312 C 130.171875 399.714844 119.738281 363.953125 111.789062 327.53125 C 106.757812 304.402344 102.996094 281.078125 101.34375 257.4375 C 101.214844 255.5625 101.171875 253.660156 101.148438 251.777344 C 101.148438 251.222656 101.34375 250.683594 101.585938 249.433594 C 103.796875 250.082031 105.917969 250.609375 107.972656 251.332031 C 134.742188 260.738281 161.675781 269.699219 188.21875 279.722656 C 235.769531 297.648438 284.289062 311.8125 334.242188 321.527344 C 362.796875 327.074219 390.855469 335.191406 419.136719 342.160156 C 421.148438 342.660156 423.132812 343.230469 426.007812 343.988281 C 425.589844 341.675781 425.394531 339.882812 424.964844 338.164062 C 416.042969 302.183594 407.066406 266.21875 398.171875 230.246094 C 387.632812 187.613281 378.097656 144.789062 371.929688 101.300781 C 369.117188 81.457031 367.214844 61.488281 364.921875 41.566406 C 364.796875 40.515625 364.90625 39.429688 364.9375 38.359375 C 368.429688 38.699219 371.917969 39.167969 375.429688 39.320312 C 409.929688 40.710938 444.015625 45.589844 477.929688 51.671875 C 524.503906 60.011719 571.210938 67.460938 618.203125 73.035156 C 619.46875 73.191406 620.742188 73.203125 622.660156 73.316406 C 622.050781 70.46875 621.632812 68.128906 621.046875 65.808594 C 611.804688 29.257812 607.691406 -7.84375 608.984375 -45.511719 C 609.472656 -59.875 610.5 -74.164062 611.945312 -88.441406 L 882.367188 -88.441406 C 888.128906 -67.589844 893.902344 -46.746094 899.261719 -25.796875 C 906.191406 1.304688 912.339844 28.609375 918.8125 55.832031 C 919.722656 59.660156 920.5625 63.503906 921.546875 67.820312 C 872.054688 76.3125 822.753906 82.167969 772.886719 82.789062 C 723.074219 83.402344 673.527344 79.476562 623.15625 73.773438 C 623.996094 77.015625 624.601562 79.5 625.285156 81.96875 C 638.390625 129.933594 656.269531 176.046875 678.914062 220.324219 C 692.769531 247.433594 706.550781 274.601562 719.871094 301.976562 C 729.710938 322.246094 737.542969 343.363281 743.566406 365.109375 C 743.917969 366.371094 744.386719 367.574219 744.96875 369.300781 C 748.019531 368.617188 750.980469 368.078125 753.851562 367.300781 C 795.515625 356.117188 837.191406 345.035156 878.800781 333.667969 C 917.492188 323.109375 956.183594 312.578125 995.597656 304.949219 C 996.488281 304.777344 997.34375 304.488281 998.21875 304.25 C 1001.882812 320.878906 1003.414062 337.75 1003.898438 354.730469 C 1004.898438 390.34375 999.511719 425.21875 990.917969 459.671875 C 981.507812 497.394531 967.597656 533.542969 952.550781 569.285156 C 949.839844 575.707031 947.257812 582.171875 944.328125 589.359375 C 946.40625 589.359375 947.796875 589.484375 949.160156 589.328125 C 970.582031 586.847656 991.988281 584.222656 1013.421875 581.847656 C 1063.679688 576.289062 1114.0625 572.753906 1164.664062 573.015625 C 1166.453125 573.015625 1168.246094 573.445312 1170.039062 573.71875 C 1169.59375 574.667969 1168.992188 575.578125 1168.773438 576.582031 C 1163.011719 601.34375 1159.707031 626.40625 1159.664062 651.878906 C 1159.628906 682.042969 1165.066406 711.265625 1173.800781 740.046875 C 1179.117188 757.582031 1183.667969 775.355469 1188.511719 793.03125 C 1189.046875 794.972656 1189.234375 797.015625 1189.667969 799.523438 " fill-opacity="1" fill-rule="nonzero"/><path fill="#fddcd8" d="M 899.628906 1032.066406 C 880.78125 1033.71875 861.875 1034.84375 843.101562 1037.109375 C 777.652344 1045.011719 715.207031 1064.269531 654.035156 1088.105469 C 631.121094 1097.039062 608.285156 1106.164062 585.414062 1115.195312 C 583.675781 1115.878906 581.910156 1116.492188 579.210938 1117.488281 C 579.492188 1114.9375 579.578125 1112.996094 579.933594 1111.109375 C 587.292969 1072.078125 594.523438 1033.035156 602.101562 994.050781 C 610.226562 952.28125 618.636719 910.574219 627.035156 868.859375 C 628.820312 859.972656 631.097656 851.171875 633.121094 842.324219 C 633.402344 841.070312 633.53125 839.785156 633.851562 837.785156 C 555.121094 845.285156 477.046875 843.175781 398.605469 830.640625 C 397.929688 835.308594 397.167969 839.699219 396.667969 844.117188 C 389.609375 906.421875 374.421875 966.847656 353.976562 1025.976562 C 340.140625 1066 325.488281 1105.738281 311.203125 1145.609375 C 289.042969 1134.574219 269.523438 1119.617188 250.082031 1104.53125 C 240.074219 1096.761719 229.976562 1089.109375 219.785156 1081.578125 C 201.175781 1067.835938 180.523438 1058.195312 158.417969 1051.5625 C 156.800781 1051.078125 155.191406 1050.554688 153.117188 1049.898438 C 153.398438 1048.179688 153.566406 1046.554688 153.945312 1044.980469 C 159.632812 1021.453125 164.734375 997.816406 167.382812 973.714844 C 169.617188 953.375 170.449219 932.992188 169.75 912.550781 C 169.078125 892.894531 168.167969 873.246094 167.652344 853.585938 C 167.253906 838.464844 167.316406 823.332031 167.152344 808.210938 C 167.132812 806.324219 166.984375 804.453125 166.902344 802.570312 L 166.777344 802.746094 C 173.960938 802.8125 181.140625 802.824219 188.324219 802.953125 C 228.652344 803.683594 268.769531 806.757812 308.496094 814.003906 C 336.390625 819.078125 364.257812 824.265625 392.148438 829.367188 C 394.097656 829.730469 396.09375 829.808594 398.222656 830.035156 C 398.453125 828.476562 398.636719 827.5625 398.722656 826.644531 C 400.957031 803.511719 403.304688 780.394531 405.359375 757.246094 C 407.710938 730.875 410.652344 704.582031 416.347656 678.714844 C 422.683594 649.933594 429.554688 621.273438 436.199219 592.558594 L 436.027344 592.6875 C 436.589844 592.726562 437.164062 592.695312 437.714844 592.796875 C 466.140625 598.210938 494.535156 603.730469 522.976562 609.039062 C 560.40625 616.027344 598.113281 621.011719 636.203125 621.707031 C 660.019531 622.144531 683.859375 621.089844 707.683594 620.710938 C 709.445312 620.679688 711.203125 620.703125 713.445312 620.703125 C 712.316406 623.582031 711.539062 625.691406 710.667969 627.757812 C 699.6875 653.902344 688.464844 679.945312 677.765625 706.199219 C 661.132812 747.023438 646.550781 788.566406 635.929688 831.410156 C 635.488281 833.199219 635.097656 834.988281 634.582031 837.1875 C 636.078125 837.246094 636.988281 837.398438 637.867188 837.308594 C 644.457031 836.667969 651.058594 836.078125 657.628906 835.285156 C 704.761719 829.621094 751.875 823.785156 799.019531 818.253906 C 832.09375 814.375 865.292969 811.878906 898.578125 810.472656 C 902.339844 810.320312 906.09375 809.847656 909.851562 809.523438 C 909.851562 809.53125 909.625 809.308594 909.625 809.308594 C 909.777344 811.5625 910.058594 813.8125 910.058594 816.070312 C 910.097656 863.484375 909.796875 910.90625 907.355469 958.277344 C 906.078125 983.007812 903.207031 1007.574219 899.628906 1032.066406 " fill-opacity="1" fill-rule="nonzero"/><path fill="#fddcd8" d="M 135.574219 71.71875 C 134.449219 76.851562 133.648438 81.488281 132.394531 86.007812 C 125.742188 110.261719 119.070312 134.503906 112.226562 158.703125 C 104.285156 186.746094 100.078125 215.257812 100.921875 244.4375 C 100.949219 245.378906 100.949219 246.339844 100.882812 247.269531 C 100.851562 247.613281 100.601562 247.9375 100.242188 248.726562 C 98.175781 248.101562 96.039062 247.476562 93.929688 246.792969 C 60.21875 235.988281 26.234375 226.261719 -8.613281 219.722656 C -46.734375 212.566406 -85.109375 209.484375 -123.867188 212.535156 C -128.199219 212.882812 -132.53125 213.269531 -136.878906 213.605469 C -137.210938 213.628906 -137.570312 213.421875 -138.488281 213.160156 C -138.878906 207.488281 -137.699219 201.769531 -136.957031 196.054688 C -132.964844 164.792969 -123.316406 135.238281 -109.902344 106.835938 C -104.015625 94.363281 -97.742188 82.054688 -91.660156 69.667969 C -90.761719 67.832031 -89.953125 65.972656 -88.71875 63.269531 C -124.09375 63.128906 -158.578125 65.183594 -192.828125 69.804688 C -206.78125 71.695312 -220.691406 73.785156 -234.65625 75.964844 L -234.65625 -88.441406 L -48.058594 -88.441406 C -51.691406 -35.871094 -62.1875 14.882812 -88.425781 62.421875 C -86.027344 62.714844 -84.621094 62.976562 -83.207031 63.019531 C -53.121094 64.027344 -23.039062 64.695312 7.015625 66.097656 C 27.800781 67.070312 48.527344 69.453125 69.3125 70.496094 C 87.621094 71.414062 106.003906 71.355469 124.34375 71.707031 C 127.898438 71.773438 131.453125 71.71875 135.574219 71.71875 " fill-opacity="1" fill-rule="nonzero"/><path fill="#fddcd8" d="M -74.03125 1272.613281 C -74.121094 1267.890625 -74.152344 1263.167969 -74.3125 1258.453125 C -74.875 1242.191406 -76.128906 1225.933594 -75.941406 1209.6875 C -75.339844 1156.648438 -87.324219 1106.5625 -109.9375 1058.8125 C -112.335938 1053.753906 -114.625 1048.644531 -117.175781 1043.097656 C -115.445312 1042.808594 -114.386719 1042.523438 -113.308594 1042.472656 C -58.867188 1039.804688 -4.441406 1036.589844 50.105469 1037.175781 C 78.734375 1037.488281 107.195312 1039.617188 135.261719 1045.625 C 140.9375 1046.839844 146.554688 1048.339844 152.714844 1049.839844 C 151.085938 1056.261719 149.675781 1062.097656 148.125 1067.902344 C 139.246094 1101.136719 130.105469 1134.304688 121.488281 1167.605469 C 110.371094 1210.5625 103.304688 1254.171875 101.402344 1298.550781 C 101.34375 1300.023438 101.121094 1301.492188 100.933594 1303.390625 C 99.019531 1302.667969 97.433594 1302.140625 95.90625 1301.492188 C 61.996094 1287 26.535156 1278.851562 -10.144531 1276.09375 C -31.457031 1274.484375 -52.828125 1273.652344 -74.179688 1272.472656 L -74.03125 1272.613281 " fill-opacity="1" fill-rule="nonzero"/><path fill="#fddcd8" d="M 364.722656 38.238281 C 363.703125 38.457031 362.675781 38.863281 361.660156 38.832031 C 316.800781 38 273.144531 45.800781 229.960938 57.035156 C 201.320312 64.5 172.265625 69.289062 142.726562 71.105469 C 141.214844 71.203125 139.699219 71.273438 138.1875 71.273438 C 137.640625 71.273438 137.117188 71.007812 136.632812 70.886719 C 136.480469 70.457031 136.1875 70.066406 136.253906 69.761719 C 147.441406 17.367188 156.789062 -35.328125 163.371094 -88.441406 L 363.226562 -88.441406 C 361.113281 -46.234375 361.539062 -4.039062 364.722656 38.238281 " fill-opacity="1" fill-rule="nonzero"/><path fill="#fddcd8" d="M 364.9375 38.183594 C 364.9375 38.183594 364.796875 38.304688 364.753906 38.347656 L 364.742188 38.359375 C 364.742188 38.316406 364.742188 38.28125 364.722656 38.238281 C 364.796875 38.214844 364.863281 38.195312 364.9375 38.183594 " fill-opacity="1" fill-rule="nonzero"/><path fill="#fddcd8" d="M 862.902344 1289.527344 C 862.527344 1298.90625 862.125 1308.269531 861.738281 1317.667969 C 860.710938 1342.226562 859.640625 1366.78125 858.667969 1391.355469 C 857.542969 1419.800781 856.449219 1448.230469 855.378906 1476.671875 L 613.785156 1476.671875 C 604.082031 1428.78125 590.839844 1381.394531 581.023438 1333.191406 C 582.679688 1332.441406 583.828125 1331.847656 585.035156 1331.375 C 626.308594 1315.195312 668.460938 1301.957031 712.121094 1293.761719 C 744.636719 1287.648438 777.371094 1285.183594 810.398438 1286.75 C 826.277344 1287.515625 842.132812 1288.621094 858.003906 1289.539062 C 859.628906 1289.636719 861.28125 1289.539062 862.902344 1289.527344 " fill-opacity="1" fill-rule="nonzero"/><path fill="#fddcd8" d="M 863.074219 1289.527344 L 862.902344 1289.527344 C 862.921875 1289.472656 862.921875 1289.398438 862.921875 1289.34375 L 863.074219 1289.527344 " fill-opacity="1" fill-rule="nonzero"/><g clip-path="url(#744449f7fc)"><g clip-path="url(#07dd8e6300)"><g clip-path="url(#854cc02091)"><path fill="#ffffff" d="M 823.359375 870.527344 C 827.410156 843.238281 827.5625 815.714844 824.945312 788.28125 C 824.058594 778.972656 824.828125 771.136719 830.574219 763.074219 C 838.246094 752.300781 835.285156 744.183594 823.015625 739.308594 C 818.839844 737.648438 817.289062 735.363281 816.441406 731.296875 C 807.195312 686.894531 791.542969 644.6875 772.1875 603.796875 C 766.386719 591.546875 759.992188 579.578125 753.566406 566.878906 C 755.386719 566.671875 756.785156 566.609375 758.140625 566.335938 C 760.386719 565.886719 763.371094 566.707031 764.175781 563.445312 C 765.0625 559.875 761.933594 559.203125 759.824219 557.882812 C 748.980469 551.089844 738.804688 543.65625 732.253906 532.175781 C 725.984375 521.191406 716.96875 511.882812 713.566406 499.132812 C 709.371094 483.378906 708.113281 467.652344 711.320312 451.617188 C 711.796875 449.238281 712.375 446.460938 709.046875 445.589844 C 705.527344 444.671875 704.515625 447.203125 703.84375 449.933594 C 702.128906 456.902344 699.65625 463.589844 696.480469 470.023438 C 693.214844 476.644531 693.191406 476.671875 688.488281 470.921875 C 667.527344 445.261719 645.070312 420.996094 620.460938 398.792969 C 617.199219 395.84375 615.636719 392.609375 615.910156 388.410156 C 616.160156 384.585938 616.566406 380.777344 616.996094 376.972656 C 617.261719 374.617188 616.808594 372.726562 614.191406 372.199219 C 611.648438 371.683594 610.300781 372.988281 609.707031 375.394531 C 609.246094 377.25 608.542969 379.046875 608.070312 380.902344 C 606.984375 385.140625 605.425781 385.585938 601.917969 382.585938 C 583.261719 366.644531 563.324219 352.421875 542.554688 339.363281 C 532.179688 332.84375 530.605469 329.207031 532.835938 316.960938 C 532.960938 316.273438 533.117188 315.59375 533.285156 314.914062 C 533.863281 312.511719 533.164062 310.753906 530.695312 310.015625 C 527.980469 309.207031 526.40625 310.363281 525.609375 313.003906 C 524.554688 316.503906 523.421875 319.960938 521.859375 323.304688 C 520.519531 326.179688 519.246094 326.125 516.679688 324.757812 C 494.664062 313.050781 471.914062 303.101562 447.96875 295.910156 C 409.667969 284.410156 370.914062 280.773438 331.449219 288.535156 C 292.429688 296.207031 260.242188 315.53125 234.597656 345.886719 C 231.273438 349.824219 227.984375 353.554688 223.105469 356.089844 C 207.496094 364.183594 199.40625 381.113281 202.21875 398.574219 C 202.542969 400.574219 202.289062 402.300781 201.675781 404.152344 C 199.585938 410.433594 197.585938 416.746094 195.597656 423.058594 C 194.238281 427.355469 192.5 431.074219 188.835938 434.3125 C 177.953125 443.929688 176.292969 460.238281 184.398438 472.261719 C 185.628906 474.09375 186.128906 475.765625 185.992188 478.03125 C 183.835938 513.449219 186.167969 548.605469 192.828125 583.449219 C 199.484375 618.28125 209.917969 651.984375 223.121094 684.890625 C 238.152344 722.355469 256.410156 758.164062 278.121094 792.15625 C 301.996094 829.523438 328.820312 864.667969 359.636719 896.644531 C 361.996094 899.09375 362.066406 900.34375 359.183594 902.421875 C 347.445312 910.886719 335.867188 919.5625 324.277344 928.214844 C 308.355469 940.097656 292.328125 951.84375 276.636719 964.023438 C 269.570312 969.511719 267.976562 979.925781 272.242188 987.730469 C 276.132812 994.859375 284.246094 999.136719 296.730469 997.042969 C 345.300781 988.882812 393.902344 980.886719 442.476562 972.75 C 445.402344 972.261719 447.609375 972.660156 450.171875 974.421875 C 460.347656 981.398438 470.773438 988.011719 481.519531 994.105469 C 523.054688 1017.640625 566.417969 1035.851562 614.53125 1040.652344 C 638.066406 1043 661.554688 1042.613281 684.527344 1037.167969 C 723.179688 1028 755.507812 1008.164062 780.128906 976.59375 C 804.507812 945.339844 817.601562 909.320312 823.359375 870.527344 Z M 823.359375 870.527344 " fill-opacity="1" fill-rule="nonzero"/></g></g></g><g clip-path="url(#2e8fa5a98d)"><g clip-path="url(#e5524cdecb)"><g clip-path="url(#38eab4265b)"><path fill="#204ecf" d="M 785.367188 963.226562 C 773.503906 981.5 758.179688 996.585938 740.136719 1008.929688 C 722.792969 1020.796875 703.796875 1029.003906 683.449219 1033.554688 C 661.640625 1038.433594 639.484375 1039.109375 617.121094 1037.152344 C 592.761719 1035.027344 569.363281 1029.109375 546.574219 1020.832031 C 512.742188 1008.542969 481.402344 991.273438 451.769531 970.910156 C 448.785156 968.855469 446.042969 968.285156 442.535156 968.871094 C 394.113281 977.011719 345.679688 985.042969 297.246094 993.082031 C 292.960938 993.792969 288.582031 994.683594 284.351562 993.136719 C 278.996094 991.175781 274.972656 987.671875 274.046875 981.746094 C 272.988281 975 275.179688 969.355469 280.722656 965.226562 C 294.558594 954.914062 308.4375 944.65625 322.285156 934.363281 C 336.550781 923.761719 350.777344 913.105469 365.085938 902.566406 C 367.152344 901.042969 368.488281 900.273438 365.945312 897.6875 C 335.035156 866.285156 308.269531 831.570312 284.285156 794.660156 C 251.8125 744.695312 226.574219 691.289062 209.183594 634.308594 C 193.980469 584.488281 186.675781 533.515625 189.375 481.3125 C 189.417969 480.476562 189.652344 479.648438 189.820312 478.683594 C 193.023438 480.542969 195.890625 482.46875 198.976562 483.917969 C 201.691406 485.191406 200.90625 487.371094 200.828125 489.300781 C 199.796875 515.859375 201.746094 542.234375 206.082031 568.414062 C 213.378906 612.472656 226.859375 654.65625 244.539062 695.617188 C 263.964844 740.632812 288.898438 782.460938 317.53125 822.082031 C 337.304688 849.4375 359.429688 874.90625 383.542969 898.566406 C 386.210938 901.1875 385.78125 902.167969 383.0625 904.171875 C 352.347656 926.832031 321.71875 949.617188 291.066406 972.363281 C 289.667969 973.402344 288.230469 974.402344 286.898438 975.519531 C 285.566406 976.628906 285.160156 978.195312 285.730469 979.765625 C 286.316406 981.371094 287.714844 982.207031 289.441406 982.117188 C 291.003906 982.039062 292.5625 981.800781 294.105469 981.542969 C 343.746094 973.277344 393.417969 965.191406 442.988281 956.511719 C 449.585938 955.355469 453.886719 957.671875 458.554688 960.957031 C 490.621094 983.519531 524.992188 1001.558594 562.375 1013.617188 C 596.261719 1024.546875 630.859375 1029.558594 666.363281 1024.503906 C 703.648438 1019.199219 735.488281 1003.136719 760.9375 975 C 786.292969 946.96875 799.476562 913.425781 806.292969 876.773438 C 810.78125 852.636719 811.300781 828.371094 810.863281 803.960938 C 810.710938 795.238281 816.746094 788.683594 820.25 781.226562 C 823.207031 804.066406 823.335938 826.820312 821.808594 849.597656 C 819.066406 890.484375 807.769531 928.71875 785.367188 963.226562 Z M 754.304688 603.066406 C 766.230469 626.886719 776.484375 651.414062 785.074219 676.644531 C 791.195312 694.617188 796.292969 712.867188 800.589844 731.351562 C 800.964844 732.980469 800.402344 735.527344 803.367188 735.542969 C 805.625 735.652344 807.941406 735.503906 810.132812 735.941406 C 813.121094 736.542969 813.789062 735.921875 812.980469 732.859375 C 811.203125 726.140625 809.925781 719.289062 808.207031 712.550781 C 795.789062 663.890625 776.527344 617.957031 752.707031 573.851562 C 749.011719 567.003906 749.015625 567.171875 741.125 569.148438 C 737.835938 569.972656 737.292969 571 738.949219 574.027344 C 744.222656 583.625 749.402344 593.277344 754.304688 603.066406 Z M 643.839844 436.449219 C 646.089844 437.773438 648.140625 439.480469 646.601562 441.609375 C 644.105469 445.046875 646.324219 446.535156 648.222656 448.519531 C 650.140625 450.527344 652.003906 452.589844 653.886719 454.632812 C 664.175781 465.808594 673.703125 477.640625 683.222656 489.59375 C 692.277344 478.191406 692.113281 481.871094 684.1875 471.671875 C 673.597656 458.054688 661.902344 445.378906 650.050781 432.882812 C 640.140625 422.433594 630.0625 412.109375 619.0625 402.515625 C 617.953125 404.128906 618.609375 405.0625 618.9375 406.011719 C 623.476562 419.230469 631.839844 429.378906 643.839844 436.449219 Z M 561.605469 370.496094 C 571.65625 379.683594 583.164062 387.417969 593.769531 396.125 C 595.9375 397.90625 598.152344 399.71875 599.773438 395.882812 C 600.984375 393.019531 606.671875 391.058594 601.234375 386.613281 C 585.515625 373.757812 569.351562 361.515625 552.566406 350.101562 C 547.332031 346.539062 541.769531 343.457031 535.445312 339.601562 C 536.324219 343.65625 537.917969 345.753906 539.015625 348.082031 C 543.816406 358.265625 553.855469 363.410156 561.605469 370.496094 Z M 210.476562 427.464844 C 211.390625 423.957031 214.25 420.394531 212.183594 416.679688 C 210.285156 413.273438 207.550781 410.324219 204.664062 406.480469 C 202.261719 413.945312 200.058594 420.765625 197.675781 428.164062 C 200.660156 428.207031 202.894531 428.308594 205.128906 428.25 C 206.976562 428.203125 209.683594 430.507812 210.476562 427.464844 Z M 236.96875 351.15625 C 244.761719 350.953125 251.316406 350.578125 258.101562 343.851562 C 279.636719 322.480469 305.988281 309.335938 336.035156 303.507812 C 376.566406 295.640625 415.71875 301.554688 454.261719 314.25 C 471.46875 319.914062 488.246094 326.835938 504.042969 335.726562 C 509.207031 338.632812 511.625 336.859375 514.875 333.351562 C 517.625 330.378906 517.625 329.160156 513.8125 327.191406 C 488.851562 314.324219 463.144531 303.414062 435.886719 296.382812 C 400.480469 287.246094 364.691406 284.78125 328.867188 292.714844 C 291.511719 300.988281 260.3125 320.03125 236.125 350.019531 C 236.125 350.023438 236.125 350.023438 236.128906 350.023438 C 236.007812 350.417969 235.886719 350.8125 235.765625 351.207031 C 236.167969 351.191406 236.566406 351.171875 236.96875 351.15625 Z M 236.96875 351.15625 " fill-opacity="1" fill-rule="nonzero"/></g></g></g><g clip-path="url(#5f851b8323)"><g clip-path="url(#ea8e2b5c88)"><g clip-path="url(#bb2d602f0c)"><path fill="#204ecf" d="M 283.199219 439.5 C 287.429688 422.433594 293.125 406.082031 306.164062 393.40625 C 322.996094 377.042969 345.722656 373.773438 365.1875 385.003906 C 376.003906 391.246094 380.933594 400.726562 380.488281 413.207031 C 379.390625 443.679688 354.28125 454.792969 333.304688 453.820312 C 330.011719 453.667969 326.597656 453.535156 323.476562 452.609375 C 318.324219 451.078125 316.753906 452.738281 316.933594 458.632812 C 317.285156 470.015625 330.363281 477.257812 341.449219 472.3125 C 344.285156 471.042969 346.804688 469.074219 349.492188 467.46875 C 353.355469 465.152344 357.398438 463.371094 361.746094 466.019531 C 365.820312 468.5 366.550781 472.722656 366.414062 477.023438 C 366.085938 487.445312 361.128906 495.710938 353.433594 502.257812 C 332.605469 519.996094 292.902344 509.078125 284.144531 483.277344 C 280.085938 471.324219 279.476562 459.058594 281.613281 446.652344 C 282.027344 444.246094 282.664062 441.882812 283.199219 439.5 Z M 343.945312 402.628906 C 341.5625 402.140625 337.984375 402.828125 335 405.234375 C 328.847656 410.199219 325.144531 416.882812 322.738281 424.261719 C 321.714844 427.40625 323.441406 429.125 326.683594 429.558594 C 337.226562 430.96875 347.867188 424.152344 351.019531 413.878906 C 352.671875 408.492188 350.386719 404.074219 343.945312 402.628906 Z M 377.035156 458.175781 C 381.664062 441.613281 387.308594 425.539062 400.519531 413.53125 C 416.683594 398.84375 434.894531 395.347656 455.125 404.121094 C 470.929688 410.976562 477.398438 426.359375 472.304688 444.71875 C 466.90625 464.175781 448.5625 476.253906 426.527344 474.773438 C 423.058594 474.542969 419.535156 474.289062 416.179688 473.457031 C 412.097656 472.449219 410.84375 474.199219 410.460938 477.816406 C 409.535156 486.589844 417.386719 494.683594 427.027344 494.882812 C 432.179688 494.988281 436.429688 492.839844 440.539062 490.050781 C 445.042969 486.996094 449.796875 483.527344 455.339844 487.21875 C 460.871094 490.90625 460.25 496.761719 459.316406 502.386719 C 456.949219 516.621094 445.375 527.679688 430.042969 530.457031 C 409.519531 534.171875 390.179688 526.917969 381.0625 511.542969 C 374.128906 499.847656 373.273438 486.820312 374.257812 473.601562 C 374.644531 468.375 375.65625 463.242188 377.035156 458.175781 Z M 444.4375 434.273438 C 446.011719 427.484375 442.628906 423.394531 435.628906 423.636719 C 433.316406 423.714844 431.160156 424.300781 429.253906 425.65625 C 422.394531 430.535156 418.847656 437.6875 416.089844 445.273438 C 415.050781 448.125 416.742188 449.925781 419.609375 450.507812 C 429.871094 452.589844 442.039062 444.628906 444.4375 434.273438 Z M 759.164062 562.09375 C 721.296875 538.28125 703.671875 504.390625 705.460938 460.09375 C 688.117188 501.0625 657.640625 524.039062 612.953125 529.453125 C 631.558594 540.429688 645.515625 554.648438 655.070312 573.050781 C 664.609375 591.417969 668.050781 611.003906 666.886719 631.671875 C 684.175781 590.488281 714.890625 567.488281 759.164062 562.09375 Z M 226.453125 488.851562 C 244.828125 491.125 259.800781 483.117188 269 466.8125 C 276.183594 454.078125 277.78125 431.425781 264.945312 417.90625 C 257.609375 410.175781 249.769531 403.054688 241.648438 396.210938 C 239.136719 394.09375 237.167969 391.671875 238.601562 388.074219 C 239.984375 384.613281 242.898438 383.917969 246.246094 383.785156 C 252.90625 383.519531 258.382812 386.050781 263.378906 390.265625 C 267.621094 393.84375 272.53125 395.421875 277.90625 392.949219 C 283.617188 390.320312 285.824219 385.375 286 379.375 C 286.238281 371.148438 281.363281 366.105469 274.78125 362.539062 C 264.96875 357.226562 254.3125 354.601562 243.1875 354.554688 C 227.019531 354.492188 212.605469 364.6875 207.75 379.136719 C 202.316406 395.292969 206.363281 407.871094 220.636719 419.171875 C 222.410156 420.574219 224.273438 421.863281 226.03125 423.285156 C 231.042969 427.339844 236.09375 431.410156 239.425781 437.050781 C 243.039062 443.171875 239.53125 450.136719 232.515625 451.117188 C 226.082031 452.015625 220.429688 448.804688 217.851562 442.792969 C 212.371094 430.003906 199.546875 427.925781 190.007812 438.28125 C 179.585938 449.59375 180.960938 466.585938 193.214844 476.027344 C 200.632812 481.746094 209.136719 485.273438 218.972656 487.667969 C 220.945312 487.984375 223.6875 488.511719 226.453125 488.851562 Z M 790.210938 855.75 C 794.660156 834.191406 800.972656 813.210938 809.894531 793.046875 C 815.121094 781.238281 821.996094 770.367188 828.589844 759.308594 C 832.800781 752.253906 830.941406 746.761719 823.6875 743.476562 C 811.6875 738.039062 799.355469 737.910156 787.09375 742.457031 C 779.207031 745.382812 775.503906 751.097656 775.882812 759.480469 C 777.257812 789.5 771.285156 818.488281 762.761719 846.917969 C 759.382812 858.183594 764.605469 864.800781 774.082031 866.242188 C 785.296875 868.710938 787.890625 866.996094 790.210938 855.75 Z M 642.503906 440.421875 C 621.140625 426.648438 611.160156 407.507812 612.203125 381.339844 C 601.914062 405.582031 584.703125 418.585938 559.4375 421.78125 C 581.015625 435.59375 591.003906 454.820312 589.808594 481.25 C 600 456.804688 617.335938 443.785156 642.503906 440.421875 Z M 527.730469 320.179688 C 523.957031 329.363281 518.140625 336.484375 510.613281 342.207031 C 502.933594 348.046875 494.144531 351.273438 484.226562 352.285156 C 504.496094 369.492188 504.496094 369.492188 510.070312 401.535156 C 518.089844 382.289062 532.566406 371.355469 554.320312 368.269531 C 536.175781 356.757812 528.046875 340.714844 527.730469 320.179688 Z M 667.460938 853.835938 C 669.636719 844.144531 671.59375 834.398438 674.074219 824.789062 C 675.402344 819.660156 678.5625 815.320312 682.824219 812.109375 C 689.503906 807.074219 696.839844 810.199219 698.253906 818.453125 C 698.730469 821.226562 698.675781 823.964844 698.332031 826.738281 C 697.195312 835.960938 694.488281 844.796875 691.777344 853.625 C 688.09375 865.625 683.988281 877.511719 682.011719 889.960938 C 680.808594 897.546875 683.625 902.003906 690.894531 904.230469 C 692.886719 904.839844 694.96875 905.230469 697.035156 905.484375 C 707.773438 906.816406 717.933594 905.675781 726.425781 898.097656 C 730.691406 894.289062 731.503906 890.210938 728.199219 886.765625 C 723.40625 881.765625 722.648438 875.789062 722.902344 869.386719 C 723.265625 860.210938 726.613281 851.679688 728.621094 842.863281 C 731.558594 829.964844 736.027344 817.351562 736.582031 804.003906 C 737.105469 791.40625 730.984375 780.570312 721.703125 777.683594 C 710.324219 774.144531 699.722656 776.519531 689.769531 782.710938 C 688.085938 783.757812 687.023438 786.84375 684.75 785.636719 C 682.238281 784.304688 683.453125 781.300781 683.46875 778.96875 C 683.476562 777.9375 683.789062 776.90625 683.949219 775.871094 C 685.246094 767.539062 682.136719 763.390625 673.667969 763.390625 C 663.410156 763.390625 653.601562 765.898438 644.738281 771.1875 C 637.457031 775.53125 636.144531 780.414062 640.085938 787.839844 C 642.792969 792.945312 643.984375 798.246094 643.328125 803.945312 C 641.496094 819.773438 637.664062 835.136719 632.378906 850.152344 C 628.847656 860.179688 624.480469 869.859375 620.300781 879.625 C 617.179688 886.921875 619.503906 891.339844 627.117188 893.320312 C 634.660156 895.285156 642.207031 895.570312 649.816406 893.683594 C 657.308594 891.820312 661.253906 886.960938 662.410156 879.457031 C 663.730469 870.84375 665.226562 862.253906 666.640625 853.65625 C 666.917969 853.714844 667.1875 853.773438 667.460938 853.835938 Z M 527.273438 800.578125 C 522.71875 820.277344 514.371094 837.449219 497.183594 849.59375 C 473.457031 866.351562 437.355469 853.203125 431.664062 824.039062 C 424.917969 789.460938 433.945312 759.582031 458.195312 734.886719 C 480.929688 711.730469 519.859375 721.089844 527.660156 754.042969 C 531.359375 769.664062 530.933594 785.085938 527.273438 800.578125 Z M 463.277344 787.71875 C 463.1875 788.21875 462.757812 790.09375 462.535156 791.992188 C 461.785156 798.433594 461.777344 804.722656 468.359375 808.515625 C 474.847656 812.25 480.605469 809.679688 485.664062 805.585938 C 496.664062 796.691406 500.777344 784.476562 500.324219 770.871094 C 499.917969 758.554688 489.964844 753.992188 479.800781 761.035156 C 470.925781 767.183594 465.949219 775.957031 463.277344 787.71875 Z M 532.082031 806.800781 C 535.859375 789.414062 543.242188 774.777344 554.144531 761.96875 C 570.175781 743.144531 594.621094 739.367188 613.03125 752.671875 C 620.585938 758.128906 625.238281 765.65625 627.460938 774.464844 C 635.152344 804.925781 629.984375 833.355469 611.804688 858.839844 C 603.035156 871.132812 590.765625 879.574219 574.902344 879.59375 C 554.832031 879.617188 537.507812 868.578125 532.617188 847.753906 C 529.335938 833.78125 528.796875 819.890625 532.082031 806.800781 Z M 600.542969 803.230469 C 600.691406 801.417969 601.183594 798.636719 601.101562 795.878906 C 600.925781 790.242188 600.546875 784.550781 594.449219 781.65625 C 588.339844 778.757812 583.25 781.15625 578.582031 784.976562 C 568.371094 793.324219 563.738281 804.457031 562.890625 817.34375 C 562.53125 822.753906 563.328125 827.816406 568.585938 830.960938 C 574.15625 834.289062 579.324219 832.765625 584.285156 829.617188 C 593.636719 823.683594 597.539062 814.289062 600.542969 803.230469 Z M 379.230469 835.097656 C 398.058594 835.074219 411.78125 826.652344 418.824219 809.109375 C 425.429688 792.652344 424.785156 776.773438 412.050781 762.855469 C 405.09375 755.25 397.324219 748.554688 389.460938 741.933594 C 387.09375 739.945312 385.394531 737.609375 386.570312 734.21875 C 387.726562 730.871094 390.398438 729.953125 393.542969 729.855469 C 400.453125 729.632812 406.398438 731.800781 411.6875 736.417969 C 416.027344 740.199219 421.191406 741.585938 426.667969 738.59375 C 432.128906 735.609375 434.292969 730.738281 434.128906 724.667969 C 433.894531 715.976562 428.316406 711.148438 421.34375 707.699219 C 413.003906 703.574219 404.097656 701.210938 394.765625 700.570312 C 372 699.011719 352.695312 716.503906 353.320312 738.488281 C 353.648438 750.023438 360.328125 758.285156 368.789062 765.171875 C 374.738281 770.007812 380.988281 774.472656 385.820312 780.519531 C 388.839844 784.289062 390.539062 788.308594 387.425781 792.910156 C 384.417969 797.351562 379.976562 797.804688 375.339844 796.839844 C 370.613281 795.855469 366.941406 793.097656 365.796875 788.203125 C 363.3125 777.59375 348.4375 774.464844 339.753906 782.371094 C 328.03125 793.046875 328.371094 811.765625 340.9375 821.75 C 348.40625 827.679688 357.125 831.167969 366.277344 833.582031 C 370.53125 834.699219 374.882812 835.101562 379.230469 835.097656 Z M 328.015625 539.371094 C 329.617188 530.59375 325.960938 525.675781 317.144531 525.605469 C 307.480469 525.527344 298.050781 527.472656 289.265625 531.574219 C 282.0625 534.9375 280.402344 538.835938 282.921875 546.414062 C 285.324219 553.628906 285.339844 560.738281 283.574219 568.011719 C 280.324219 581.402344 277.128906 594.804688 273.921875 608.207031 C 272.457031 614.324219 271.375 620.488281 271.335938 626.8125 C 271.234375 643.058594 281.960938 653.742188 298.195312 653.648438 C 307.351562 653.589844 314.589844 649.558594 320.753906 643.191406 C 321.910156 641.996094 323.242188 640.667969 324.742188 641.417969 C 326.539062 642.320312 325.375 644.25 325.085938 645.667969 C 323.765625 652.183594 321.714844 658.445312 318.621094 664.371094 C 311.304688 678.398438 303.53125 682.671875 287.867188 681.121094 C 278.582031 680.203125 272.503906 684.117188 270.714844 692.421875 C 269.152344 699.703125 270.71875 706.167969 275.988281 711.710938 C 282.554688 718.625 290.9375 721.265625 300.003906 721.652344 C 319.757812 722.492188 339.375 709.371094 348.179688 689.929688 C 355.207031 674.421875 359.148438 657.996094 362.558594 641.414062 C 366.707031 621.261719 370.644531 601.066406 376.65625 581.335938 C 379.699219 571.335938 383.878906 561.683594 385.859375 551.351562 C 387.070312 545.011719 385.128906 541.523438 378.769531 540.382812 C 368.59375 538.558594 358.574219 539.699219 349.058594 543.660156 C 342.761719 546.285156 341.648438 550.613281 342.738281 557.207031 C 345.792969 575.675781 340.164062 592.207031 330.253906 607.570312 C 329.886719 608.136719 329.28125 608.570312 328.730469 608.992188 C 323.441406 613.066406 316.546875 611.054688 314.316406 604.757812 C 313.125 601.398438 313.265625 597.917969 313.585938 594.429688 C 315.054688 578.617188 321.664062 564.167969 325.859375 549.070312 C 326.582031 545.835938 327.421875 542.625 328.015625 539.371094 Z M 479.933594 655.5625 C 478.109375 663.746094 476.617188 671.957031 477.601562 680.40625 C 479.261719 694.660156 488.628906 703.257812 502.988281 703.90625 C 512.277344 704.324219 519.988281 701.046875 526.511719 694.59375 C 527.824219 693.296875 528.964844 690.960938 531.078125 691.757812 C 533.675781 692.734375 532.242188 695.359375 532.289062 697.273438 C 532.410156 702.265625 531.550781 707.359375 536.464844 711.058594 C 546.484375 718.597656 569.050781 716.363281 577.125 706.742188 C 579.527344 703.886719 581.039062 700.324219 577.898438 697.382812 C 573.171875 692.957031 572.613281 687.375 572.324219 681.625 C 571.535156 665.996094 576.464844 651.347656 580.484375 636.589844 C 584.007812 623.648438 588.234375 610.898438 591.835938 597.976562 C 593.492188 592.039062 591.519531 588.175781 586.167969 587.007812 C 575.507812 584.691406 565.011719 585.707031 555.15625 590.585938 C 550.929688 592.679688 548.101562 596.480469 549.574219 601.261719 C 551.792969 608.441406 550.679688 615.429688 549.570312 622.433594 C 547.679688 634.386719 544.441406 645.9375 537.089844 655.863281 C 534.796875 658.953125 531.738281 660.886719 527.613281 660.035156 C 523.273438 659.136719 521.25 656.019531 520.308594 652.054688 C 519.453125 648.46875 519.570312 644.816406 519.835938 641.148438 C 520.613281 630.230469 524.679688 620.136719 527.589844 609.753906 C 530.078125 600.875 533.640625 592.246094 534.507812 582.980469 C 535.113281 576.515625 533.226562 573.820312 526.953125 572.507812 C 514.753906 569.953125 503.402344 573.046875 492.96875 579.214844 C 487.625 582.375 486.617188 587.140625 488.992188 592.847656 C 490.566406 596.625 491.226562 600.453125 491.042969 604.53125 C 490.53125 615.976562 486.261719 626.644531 483.929688 637.703125 C 482.601562 643.660156 481.257812 649.609375 479.933594 655.5625 Z M 475.027344 631.941406 C 471.921875 646.3125 465.972656 660.808594 454.417969 672.480469 C 438.65625 688.402344 420.285156 691.917969 401.078125 682.691406 C 390.582031 677.648438 383.765625 669.375 380.703125 658.210938 C 372.597656 628.628906 379.160156 601.765625 396.167969 576.933594 C 402.695312 567.40625 410.722656 559.625 421.730469 555.40625 C 443.613281 547.019531 467.414062 558.773438 474.59375 581.574219 C 479.707031 597.816406 479.09375 614.164062 475.027344 631.941406 Z M 411.15625 618.714844 C 411 619.621094 410.394531 621.839844 410.261719 624.085938 C 409.914062 629.96875 410.195312 635.695312 416.242188 639.066406 C 422.289062 642.4375 427.730469 640.636719 432.730469 636.839844 C 444.429688 627.96875 448.597656 615.480469 448.273438 601.496094 C 447.996094 589.269531 437.976562 584.648438 427.808594 591.613281 C 418.714844 597.84375 413.773438 606.820312 411.15625 618.714844 Z M 780.21875 911.625 C 788.484375 906.582031 790.769531 896.066406 785.246094 890.347656 C 775.089844 879.839844 751.21875 882.742188 743.8125 895.386719 C 740.015625 901.871094 741.617188 908.625 747.996094 912.464844 C 750.527344 913.988281 753.21875 915.234375 756.195312 915.757812 C 764.738281 917.546875 772.851562 916.117188 780.21875 911.625 Z M 780.21875 911.625 " fill-opacity="1" fill-rule="nonzero"/></g></g></g><g clip-path="url(#ebe76eaebc)"><g clip-path="url(#306adf71aa)"><g clip-path="url(#46c9d4897c)"><path fill="#fddcd8" d="M 806.15625 843.144531 C 806.519531 833.875 807.203125 824.617188 806.730469 814.011719 C 803.472656 819.957031 801.824219 825.082031 800.535156 830.25 C 797.90625 840.738281 795.621094 851.316406 793.300781 861.878906 C 792.257812 866.625 789.339844 869.800781 784.832031 870.707031 C 778.375 872.011719 771.941406 870.910156 766.074219 867.90625 C 758.28125 863.914062 756.308594 859.257812 758.226562 850.753906 C 761.667969 835.484375 765.449219 820.285156 768.464844 804.933594 C 770.804688 793.03125 772.027344 780.949219 771.925781 768.738281 C 771.882812 763.746094 771.160156 758.671875 772.507812 753.683594 C 774.886719 744.867188 779.953125 739.023438 789.347656 737.398438 C 797.402344 736.011719 797.324219 735.882812 795.425781 728.019531 C 789.039062 701.617188 781.097656 675.691406 770.882812 650.515625 C 760.367188 624.59375 748.40625 599.339844 734.710938 574.925781 C 733.472656 572.71875 732.257812 572.757812 730.070312 573.546875 C 713.121094 579.671875 699.363281 590.101562 688.085938 604.039062 C 678.769531 615.554688 671.960938 628.292969 668.742188 642.828125 C 668.15625 645.476562 666.847656 646.789062 663.957031 646.207031 C 660.9375 645.597656 659.8125 643.992188 660.613281 640.972656 C 661.820312 636.421875 662.488281 631.789062 662.625 627.066406 C 663.164062 608.878906 660.03125 591.582031 651.417969 575.300781 C 642.226562 557.910156 629.257812 544.324219 612.582031 534.039062 C 610.523438 532.765625 606.714844 532.066406 607.769531 528.179688 C 608.730469 524.628906 612.074219 525.175781 614.726562 524.828125 C 622.3125 523.828125 629.941406 522.808594 637.179688 520.375 C 651.640625 515.519531 664.316406 507.75 675.515625 497.1875 C 679.203125 493.710938 679.621094 491.675781 676.71875 488.222656 C 664.976562 474.257812 653.535156 460.027344 640.734375 446.988281 C 639.703125 445.9375 638.800781 444.976562 637.183594 445.410156 C 627.878906 447.894531 619.046875 451.265625 611.484375 457.546875 C 601.917969 465.480469 596.0625 475.730469 592.199219 487.292969 C 591.453125 489.519531 590.601562 491.152344 587.851562 490.621094 C 585.269531 490.121094 584.453125 488.617188 584.820312 486.089844 C 585.144531 483.863281 585.089844 481.585938 585.382812 479.351562 C 588.03125 459.164062 575.605469 434.945312 557.613281 426.070312 C 554.832031 424.699219 554.742188 422.894531 554.738281 420.730469 C 554.730469 417.960938 556.761719 417.539062 559.070312 417.375 C 564.640625 416.984375 570.222656 416.320312 575.296875 413.816406 C 579.554688 411.714844 583.855469 409.558594 587.707031 406.824219 C 594.304688 402.128906 594.191406 401.898438 587.898438 396.910156 C 581.242188 391.640625 574.398438 386.609375 567.886719 381.171875 C 560.492188 374.992188 552.941406 370.257812 542.945312 375.085938 C 539.40625 376.792969 535.683594 378.199219 532.355469 380.246094 C 522.261719 386.449219 516.242188 395.835938 512.671875 406.894531 C 511.761719 409.714844 511.320312 412.460938 507.273438 411.410156 C 503.300781 410.378906 503.894531 407.535156 504.519531 404.753906 C 508.5 387.027344 498.488281 366.75 483.671875 357.585938 C 481.390625 356.175781 478.171875 355.058594 479.078125 351.460938 C 479.996094 347.8125 483.359375 347.878906 486.300781 347.613281 C 491.390625 347.160156 496.175781 345.667969 500.6875 343.324219 C 501.683594 342.808594 503.210938 342.4375 503.070312 340.921875 C 502.960938 339.746094 501.6875 339.566406 500.757812 339.09375 C 492.886719 335.097656 485.097656 330.960938 476.804688 327.824219 C 463.34375 322.734375 450.085938 317.234375 436.054688 313.617188 C 426.625 311.191406 417.285156 308.761719 407.625 307.390625 C 398.683594 306.125 389.738281 305.085938 380.726562 304.726562 C 355.851562 303.730469 331.636719 306.980469 308.4375 316.433594 C 290.082031 323.910156 273.457031 333.976562 260 348.789062 C 259.152344 349.714844 256.792969 349.835938 257.742188 351.597656 C 258.226562 352.492188 260.183594 352.621094 261.488281 353.035156 C 271.273438 356.125 281.210938 358.789062 287.21875 368.398438 C 291.3125 374.953125 290.554688 387.832031 285.304688 392.855469 C 278.4375 399.429688 270.191406 399.929688 261.984375 394.253906 C 260.125 392.964844 258.285156 391.652344 256.449219 390.328125 C 253.628906 388.300781 250.339844 387.832031 247.03125 387.765625 C 245.527344 387.734375 243.773438 388.023438 243.058594 389.757812 C 242.277344 391.644531 243.691406 392.648438 244.902344 393.640625 C 247.96875 396.152344 251.296875 398.390625 254.097656 401.167969 C 264.707031 411.667969 276.84375 421.167969 279.054688 437.601562 C 280.828125 430.042969 283.699219 423.132812 286.382812 416.183594 C 295.480469 392.601562 317.757812 371.457031 345.445312 374.621094 C 358.972656 376.164062 371.542969 380.472656 379.574219 392.972656 C 384.394531 400.480469 384.65625 408.464844 384.050781 417.003906 C 382.75 435.363281 370.324219 450.660156 352.65625 455.597656 C 343.214844 458.238281 333.824219 458.417969 324.285156 457.148438 C 321.222656 456.742188 320.546875 457.542969 321.445312 460.53125 C 323.929688 468.8125 333.398438 472.425781 341.367188 467.863281 C 344.675781 465.972656 347.640625 463.359375 351.109375 461.898438 C 354.609375 460.421875 358.507812 459.996094 362.28125 461.777344 C 365.960938 463.519531 368.5625 466.339844 370.515625 470.769531 C 373.507812 458.050781 375.898438 446.355469 380.609375 435.15625 C 391.742188 408.675781 420.75 386.121094 453.6875 399.148438 C 467.390625 404.570312 479.089844 416.785156 478 433.496094 C 476.917969 450.03125 471.28125 463.988281 455.867188 472.433594 C 444.097656 478.886719 431.507812 479.972656 418.515625 478.28125 C 414.199219 477.71875 413.953125 479.625 415.320312 482.753906 C 418.957031 491.066406 429.152344 493.570312 436.25 487.6875 C 438.566406 485.761719 441.136719 484.339844 443.703125 483.027344 C 451.988281 478.796875 461.773438 483.628906 463.625 492.585938 C 466.230469 505.195312 456.515625 523.953125 445.078125 529.636719 C 430.449219 536.914062 415.472656 536.945312 400.4375 532.105469 C 389.71875 528.660156 381.664062 521.550781 376.1875 511.425781 C 371.949219 503.589844 371.378906 494.960938 369.40625 485.574219 C 359.148438 512.613281 338.5625 517.726562 313.824219 512.75 C 287.546875 507.46875 277.660156 488.496094 275.542969 463.464844 C 269.386719 478.273438 259.460938 487.78125 244.328125 491.71875 C 232.714844 494.738281 221.46875 492.867188 210.433594 489.4375 C 205.558594 487.921875 205 489.441406 204.96875 493.703125 C 204.871094 505.855469 205.070312 517.972656 206.015625 530.101562 C 207.484375 548.964844 209.746094 567.683594 213.8125 586.1875 C 215.96875 596.007812 218.457031 605.726562 220.925781 615.464844 C 225.695312 634.324219 231.765625 652.738281 239.078125 670.730469 C 244.035156 682.941406 249.050781 695.117188 254.644531 707.097656 C 263.695312 726.480469 273.414062 745.5 284.261719 763.890625 C 295.234375 782.484375 306.957031 800.648438 320.007812 817.90625 C 332.679688 834.664062 345.058594 851.648438 359.710938 866.8125 C 368.882812 876.300781 377.570312 886.265625 386.898438 895.59375 C 393.136719 901.835938 393.363281 902.230469 386.015625 907.371094 C 378.320312 912.753906 370.679688 918.210938 363.109375 923.773438 C 341.582031 939.59375 320.722656 956.324219 298.742188 971.53125 C 296.621094 973.003906 294.40625 974.457031 293.328125 977 C 292.855469 977.046875 292.375 977.09375 291.898438 977.140625 C 291.964844 977.289062 292.066406 977.574219 292.085938 977.570312 C 292.527344 977.441406 292.960938 977.277344 293.394531 977.121094 C 302.96875 975.652344 312.550781 974.246094 322.113281 972.714844 C 344.9375 969.046875 367.765625 965.414062 390.5625 961.589844 C 408.914062 958.515625 427.222656 955.203125 445.546875 951.957031 C 449.421875 951.273438 452.75 951.410156 456.300781 954.023438 C 469.730469 963.90625 483.851562 972.867188 498.417969 980.890625 C 521.070312 993.367188 544.621094 1004.179688 569.632812 1011.082031 C 592.519531 1017.394531 615.808594 1022.054688 639.710938 1021.945312 C 660.511719 1021.851562 680.929688 1018.734375 700.378906 1011.148438 C 719.605469 1003.648438 736.910156 993.019531 751.691406 978.328125 C 773.960938 956.203125 788.523438 929.714844 796.5625 899.628906 C 801.507812 881.148438 805.40625 862.394531 806.15625 843.144531 Z M 494.113281 573.71875 C 504.703125 568.441406 516.109375 565.96875 528.007812 568.503906 C 536.414062 570.292969 539.929688 575.921875 538.199219 584.285156 C 535.449219 597.570312 531.898438 610.617188 527.503906 623.488281 C 524.648438 631.851562 522.824219 640.585938 524.113281 649.667969 C 524.523438 652.535156 525.417969 655.101562 527.992188 655.933594 C 530.753906 656.824219 532.871094 654.515625 534.511719 652.535156 C 538.09375 648.183594 540.25 642.988281 541.800781 637.679688 C 545.058594 626.519531 548.453125 615.335938 545.71875 603.425781 C 544.109375 596.390625 546.527344 590.550781 552.957031 587.210938 C 564.511719 581.210938 576.792969 579.695312 589.144531 584.148438 C 595.859375 586.570312 597.902344 590.875 596.085938 597.867188 C 592.988281 609.789062 589.082031 621.496094 585.792969 633.371094 C 581.484375 648.925781 576.6875 664.324219 576.296875 680.765625 C 576.105469 688.734375 581.023438 693.84375 584.027344 700.09375 C 584.128906 700 584.226562 699.90625 584.332031 699.808594 C 584.230469 699.914062 584.132812 700.015625 584.039062 700.121094 C 584.035156 700.113281 584.03125 700.105469 584.027344 700.09375 C 584.023438 700.097656 584.023438 700.097656 584.023438 700.097656 C 582.773438 709.660156 576.242188 714.46875 567.996094 717.441406 C 557.46875 721.238281 546.976562 719.925781 536.921875 715.796875 C 531.464844 713.554688 527.894531 709.335938 528.566406 702.738281 C 528.664062 701.785156 528.578125 700.660156 527.578125 699.863281 C 525.527344 700.402344 524.0625 701.949219 522.328125 703.054688 C 505.832031 713.605469 478.113281 707.757812 474.039062 683.691406 C 472.878906 676.863281 472.886719 669.824219 474.398438 662.972656 C 478.347656 645.101562 482.296875 627.222656 486.542969 609.421875 C 487.699219 604.578125 487.097656 600.046875 485.703125 595.601562 C 482.296875 584.78125 484.050781 578.734375 494.113281 573.71875 Z M 392.070312 575.613281 C 399.1875 564.976562 407.839844 556.3125 420.140625 551.660156 C 444.128906 542.585938 470.761719 555.265625 478.429688 579.632812 C 483.355469 595.273438 483.59375 612.445312 477.519531 639.347656 C 474.886719 650 467.875 666.414062 453.605469 678.820312 C 433.503906 696.304688 409.683594 695.484375 389.761719 680.164062 C 380.089844 672.726562 376.539062 662.113281 374.65625 650.640625 C 370.148438 623.234375 376.796875 598.4375 392.070312 575.613281 Z M 345.617188 702.160156 C 336.789062 714.042969 325.390625 722.640625 310.792969 725.074219 C 296.226562 727.507812 282.410156 724.695312 271.601562 713.261719 C 262.597656 703.734375 265.238281 681.648438 278.273438 677.78125 C 281.894531 676.707031 285.671875 676.210938 289.058594 677.054688 C 299.988281 679.785156 307.183594 675.179688 312.65625 666.332031 C 315.582031 661.605469 318.097656 656.707031 319.625 650.082031 C 307.378906 658.648438 295.71875 659.773438 283.164062 654.171875 C 274.371094 650.242188 269.40625 643.699219 268.019531 634.460938 C 267.09375 628.285156 266.835938 622.027344 268.273438 615.800781 C 272.191406 598.804688 275.945312 581.777344 279.871094 564.785156 C 281.070312 559.578125 281.382812 554.398438 279.558594 549.359375 C 274.476562 535.339844 281.472656 529.292969 293.496094 525.398438 C 301.226562 522.894531 309.289062 521.507812 317.542969 521.609375 C 328.292969 521.738281 333.636719 528.433594 331.769531 539.039062 C 328.648438 556.75 321.039062 573.226562 317.808594 590.902344 C 317.132812 594.613281 317.242188 598.1875 317.789062 601.78125 C 318.128906 604.03125 319.210938 606.183594 321.761719 606.804688 C 324.257812 607.410156 325.976562 606.128906 327.640625 604.335938 C 331.441406 600.246094 333.59375 595.050781 334.84375 590.035156 C 337.566406 579.085938 342.5 568.3125 338.125 556.371094 C 335.949219 550.433594 340.886719 543.101562 346.8125 540.351562 C 356.960938 535.640625 367.707031 534.671875 378.441406 536.21875 C 386.621094 537.398438 392.339844 542.011719 389.851562 552.34375 C 387.121094 563.679688 382.804688 574.488281 379.363281 585.582031 C 378.074219 589.734375 377.210938 594.027344 376.253906 598.277344 C 371.25 620.496094 366.6875 642.828125 361.144531 664.910156 C 357.863281 677.988281 353.882812 691.035156 345.617188 702.160156 Z M 730.0625 900.210938 C 721.972656 908.445312 711.960938 910.664062 700.910156 909.820312 C 696.417969 909.480469 692.125 908.863281 687.738281 907.261719 C 679.074219 904.105469 676.777344 897.472656 677.949219 889.386719 C 679.644531 877.664062 683.539062 866.441406 687.039062 855.136719 C 690.257812 844.726562 694.722656 834.5625 694.660156 823.351562 C 694.636719 819.824219 694.75 815.730469 690.832031 814.4375 C 686.945312 813.160156 684.285156 815.890625 681.878906 819.011719 C 678.601562 823.269531 676.820312 828.0625 675.425781 833.09375 C 670.902344 849.410156 668.957031 866.25 665.390625 882.761719 C 663.59375 891.0625 658.710938 895.851562 650.59375 897.683594 C 641.210938 899.796875 632.003906 899.433594 622.902344 896.160156 C 614.515625 893.148438 612.988281 885.988281 616.566406 878.210938 C 626.78125 855.980469 634.550781 833.03125 638.933594 808.941406 C 639.722656 804.609375 639.425781 800.273438 638.996094 795.96875 C 638.765625 793.640625 637.8125 791.347656 634.464844 789.773438 C 636.289062 804.679688 633.003906 818.363281 629.476562 831.964844 C 624.34375 851.757812 613.691406 867.546875 595.660156 878.046875 C 572.503906 891.535156 535.664062 879.714844 528.90625 849.984375 C 526.65625 840.085938 525.703125 830.171875 525.820312 818.835938 C 520.679688 832.15625 513.082031 842 503.121094 850.441406 C 478.566406 871.246094 440.476562 859.15625 430.664062 834.625 C 427.414062 826.503906 426.175781 817.847656 425.445312 809.144531 C 425.335938 807.789062 425.230469 806.429688 425.011719 803.632812 C 422.636719 810.929688 420.058594 816.65625 416.359375 821.714844 C 407.308594 834.105469 394.652344 839.066406 379.65625 839.035156 C 363.761719 839.003906 349.636719 833.820312 337.386719 823.929688 C 321.210938 810.867188 325.503906 787.523438 339.585938 776.917969 C 347.734375 770.78125 365.554688 772.894531 369.105469 785.9375 C 370.597656 791.417969 375.910156 794.035156 381.347656 792.628906 C 384.371094 791.847656 385.582031 789.839844 384.464844 786.667969 C 382.4375 780.914062 377.484375 777.757812 373.261719 773.988281 C 367.566406 768.90625 361.050781 764.800781 356.441406 758.460938 C 349.402344 748.773438 347.480469 738.328125 350.945312 726.933594 C 353.183594 719.578125 356.722656 712.972656 362.5 707.648438 C 371.457031 699.386719 382.417969 695.789062 394.058594 696.554688 C 406.652344 697.382812 419.035156 700.335938 429.675781 708.148438 C 441.582031 716.898438 441.183594 734.914062 428.71875 742.597656 C 423.574219 745.765625 414.414062 744.753906 408.976562 739.457031 C 404.96875 735.554688 400.121094 735 395.269531 733.890625 C 393.589844 733.507812 392.03125 734.007812 391.078125 735.386719 C 389.777344 737.277344 391.597656 738.203125 392.667969 739.203125 C 398.246094 744.398438 404.398438 748.894531 409.703125 754.464844 C 418.359375 763.554688 426.058594 772.941406 426.996094 786.292969 C 428.535156 774.039062 433.4375 763.128906 439.296875 752.726562 C 448.019531 737.242188 458.878906 723.777344 477.347656 719.390625 C 489.351562 716.542969 500.519531 718.773438 511.480469 724.675781 C 527.910156 733.527344 531.054688 749.261719 533.882812 765.257812 C 535.058594 771.910156 534.210938 778.738281 533.988281 786.410156 C 538.640625 777.582031 542.839844 769.503906 548.589844 762.339844 C 563.375 743.917969 582.351562 735.652344 605.28125 743.796875 C 619.066406 748.691406 627.417969 759.507812 631.546875 773.507812 C 632.074219 775.304688 632.511719 777.125 633.144531 779.507812 C 639.023438 765.085938 651.914062 762.90625 664.167969 760.242188 C 668.578125 759.285156 673.320312 758.488281 678.113281 759.796875 C 684.800781 761.625 689.230469 766.796875 688.457031 773.796875 C 687.988281 778.042969 688.175781 778.773438 692.371094 776.582031 C 701.597656 771.75 711.621094 770.410156 721.609375 773.417969 C 736.171875 777.804688 741.023438 790.515625 740.46875 805.230469 C 740.011719 817.460938 736.367188 829.140625 732.925781 840.851562 C 729.832031 851.355469 727.097656 862.042969 726.792969 873.089844 C 726.683594 876.925781 728.011719 880.484375 730.800781 883.523438 C 735.625 888.773438 735.136719 895.050781 730.0625 900.210938 Z M 783.5625 914.359375 C 771.328125 921.726562 758.152344 923.511719 745.144531 915.371094 C 738.160156 910.996094 736.4375 903.191406 739.429688 895.496094 C 744.296875 882.957031 762.261719 877.394531 774.890625 881.300781 C 781.285156 882.652344 787.039062 884.609375 790.597656 891.011719 C 795.558594 899.957031 789.789062 910.617188 783.5625 914.359375 Z M 215.972656 432.050781 C 213.535156 429.328125 215.335938 426.421875 216.164062 423.703125 C 216.601562 422.269531 217.753906 422.992188 218.703125 423.496094 C 225.402344 427.0625 230.648438 432.300781 235.4375 438.058594 C 237.257812 440.242188 236.964844 442.710938 235.664062 444.875 C 233.863281 447.875 230.972656 447.214844 228.171875 446.4375 C 225.839844 446.179688 223.703125 445.328125 222.820312 442.964844 C 221.273438 438.835938 218.894531 435.308594 215.972656 432.050781 Z M 635.1875 787.488281 C 635.378906 787.691406 635.398438 788.0625 635.480469 788.367188 C 635.179688 788.382812 634.769531 788.511719 634.621094 788.371094 C 634.4375 788.199219 634.476562 787.796875 634.421875 787.492188 C 634.6875 787.480469 635.070312 787.359375 635.1875 787.488281 Z M 327.367188 423.539062 C 329.890625 418.222656 332.226562 412.808594 336.753906 408.765625 C 338.894531 406.855469 341.535156 406.808594 344.113281 407.03125 C 347.574219 407.332031 347.390625 409.960938 347.328125 411.769531 C 345.847656 418.851562 335.847656 426.371094 329.203125 425.964844 C 327.71875 425.875 326.320312 425.753906 327.367188 423.539062 Z M 440.066406 433.882812 C 438.460938 440.8125 429.375 447.1875 422.394531 446.550781 C 420.144531 446.34375 420.078125 445.183594 420.714844 443.824219 C 423.46875 437.96875 426.78125 432.445312 432.320312 428.78125 C 434.425781 427.390625 437.039062 427.214844 439.285156 428.640625 C 441.371094 429.960938 440.386719 432.039062 440.066406 433.882812 Z M 494.84375 782.167969 C 493.300781 791.371094 489.234375 798.761719 481.34375 803.628906 C 477.894531 805.753906 474.15625 807.742188 470.25 804.789062 C 466.613281 802.03125 465.503906 798.203125 466.410156 793.691406 C 468.128906 785.152344 469.710938 776.5625 476.03125 769.910156 C 479.359375 766.410156 482.714844 762.9375 487.835938 761.984375 C 491.828125 761.242188 494.136719 762.933594 495.386719 766.542969 C 497.25 771.902344 496.367188 777.171875 494.84375 782.167969 Z M 597.128906 798.148438 C 596.140625 808.234375 592.222656 817.285156 584.632812 824.359375 C 582.320312 826.519531 579.515625 827.910156 576.308594 828.421875 C 571.292969 829.230469 568.050781 826.78125 567.1875 821.671875 C 566.503906 817.632812 566.757812 813.714844 567.929688 810.214844 C 569.347656 801.765625 573.832031 795.390625 579.304688 789.695312 C 582.765625 786.089844 587.4375 783.039062 592.21875 785.253906 C 597.105469 787.511719 597.589844 793.414062 597.128906 798.148438 Z M 414.246094 626.121094 C 415.753906 614.996094 418.203125 604.164062 427.898438 596.621094 C 431.519531 593.800781 435.488281 590.859375 439.613281 593.039062 C 444.007812 595.359375 445.023438 600.472656 444.375 605.453125 C 444.082031 607.691406 443.414062 609.882812 442.917969 612.085938 C 441.550781 621.089844 437.589844 628.464844 429.886719 633.714844 C 426.386719 636.105469 422.796875 637.90625 418.761719 635.980469 C 414.789062 634.089844 413.746094 629.8125 414.246094 626.121094 Z M 414.246094 626.121094 " fill-opacity="1" fill-rule="nonzero"/></g></g></g></svg>