<svg xmlns="http://www.w3.org/2000/svg" xmlns:xlink="http://www.w3.org/1999/xlink" zoomAndPan="magnify" preserveAspectRatio="xMidYMid meet" version="1.0" viewBox="80.28 52.84 11.25 1.5"><defs><clipPath id="c5f7290615"><path d="M 80.28125 52.835938 L 91.53125 52.835938 L 91.53125 54.335938 L 80.28125 54.335938 Z M 80.28125 52.835938 " clip-rule="nonzero"/></clipPath></defs><g clip-path="url(#c5f7290615)"><path fill="#cade66" d="M 90.816406 53.953125 C 90.625 53.851562 90.320312 53.742188 90.089844 53.5625 C 89.707031 53.273438 89.335938 53.289062 89.066406 53.652344 C 88.648438 54.226562 87.894531 54.277344 87.335938 53.769531 C 86.828125 53.308594 86.648438 53.308594 86.148438 53.769531 C 85.550781 54.316406 84.949219 54.335938 84.324219 53.789062 C 83.988281 53.496094 83.699219 53.542969 83.375 53.78125 C 82.699219 54.28125 82.304688 54.28125 81.65625 53.792969 C 81.328125 53.546875 81.117188 53.582031 80.730469 53.90625 C 80.628906 53.988281 80.472656 54.027344 80.34375 54.085938 C 80.351562 53.9375 80.296875 53.761719 80.378906 53.652344 C 80.785156 53.136719 81.484375 53.078125 82.015625 53.519531 C 82.328125 53.777344 82.550781 53.800781 82.886719 53.519531 C 83.503906 53 84.144531 53.03125 84.742188 53.550781 C 85.09375 53.855469 85.257812 53.863281 85.59375 53.53125 C 85.882812 53.246094 86.179688 53.019531 86.675781 53.023438 C 87.089844 53.027344 87.410156 53.117188 87.664062 53.40625 C 88.03125 53.828125 88.269531 53.808594 88.589844 53.386719 C 88.96875 52.878906 89.957031 52.835938 90.457031 53.273438 C 90.578125 53.378906 90.894531 53.476562 91.007812 53.421875 C 91.238281 53.308594 91.417969 53.300781 91.480469 53.484375 C 91.515625 53.59375 91.351562 53.757812 91.238281 53.875 C 91.191406 53.921875 91.050781 53.914062 90.816406 53.953125 Z M 90.816406 53.953125 " fill-opacity="1" fill-rule="nonzero"/></g></svg>
