<?xml version="1.0" encoding="utf-8"?>
<svg zoomAndPan="magnify" preserveAspectRatio="xMidYMid meet" version="1.0" viewBox="5.27 3.69 435.88 416.6" xmlns="http://www.w3.org/2000/svg">
  <path fill="#9059d4" d="M 46.629 69.76 C 61.817 40.93 96.917 39.243 126.362 41.942 C 159.269 44.974 176.226 36.208 203.988 20.108 C 226.515 7.039 247.355 7.459 271.231 19.684 C 300.089 34.521 294.181 61.078 317.554 77.938 C 339.237 93.618 371.974 86.62 395.007 101.122 C 418.127 115.706 424.368 140.913 423.101 166.962 C 421.332 202.455 403.021 235.672 409.519 271.667 C 414.752 300.669 445.042 330.427 429.937 361.028 C 401.672 418.271 313.419 370.304 268.025 378.647 C 218.92 387.754 144.503 442.129 97.254 393.825 C 76.33 372.493 87.637 338.52 87.214 312.47 C 86.623 276.218 74.221 265.259 48.908 241.655 C 24.526 218.978 5.205 207.683 14.822 173.37 C 20.561 152.801 48.572 148.246 53.803 134.675 C 60.132 117.728 37.941 86.114 46.629 69.76 Z M 46.629 69.76" fill-opacity="1" fill-rule="nonzero" style="stroke: rgb(67, 80, 23); stroke-width: 3px; stroke-linecap: round;"/>
</svg>
