<?xml version="1.0" encoding="utf-8"?>
<svg zoomAndPan="magnify" preserveAspectRatio="xMidYMid meet" version="1.0" viewBox="13.99 8.01 435.86 436.22" xmlns="http://www.w3.org/2000/svg">
  <path fill="#9059d4" d="M 303.211 429.532 C 298.06 428.43 280.782 420.821 264.821 412.621 C 234.006 396.782 205.274 389.607 172.505 389.566 C 161.455 389.566 142.052 386.498 129.375 382.775 C 49.64 359.361 10.114 285.471 27.267 191.908 C 40.645 118.939 76.27 69.912 139.969 36.803 C 191.008 10.273 240.378 10.832 308.415 38.698 C 358.791 59.34 383.908 86.166 391.387 127.321 C 392.896 135.599 403.62 166.544 415.225 196.097 C 434.906 246.2 436.327 252.01 436.223 282.074 C 436.012 321.815 425.654 354.484 404.146 382.491 C 380.203 413.665 332.668 435.824 303.211 429.529 L 303.211 429.532 Z M 303.211 429.532" fill-opacity="1" fill-rule="nonzero" style="stroke: rgb(67, 80, 23); stroke-width: 3px; stroke-linecap: round; stroke-linejoin: round;"/>
</svg>