<?xml version="1.0" encoding="utf-8"?>
<svg zoomAndPan="magnify" preserveAspectRatio="xMidYMid meet" version="1.0" viewBox="2 0.17 445.76 450.23" xmlns="http://www.w3.org/2000/svg">
  <path fill="#9059d4" d="M 207.662 28.887 C 188.445 26.329 171.493 15.228 152.907 9.701 C 141.969 6.447 130.395 5.149 119.052 6.435 C 107.715 7.718 96.616 11.63 87.26 18.181 C 77.909 24.734 70.366 33.964 66.277 44.633 C 62.19 55.302 61.669 67.393 65.303 78.225 C 67.781 85.605 72.063 92.228 76.288 98.767 C 80.513 105.302 84.776 111.939 87.204 119.338 C 89.837 127.346 90.21 136.016 88.833 144.336 C 87.451 152.653 84.36 160.63 80.261 167.999 C 72.067 182.732 60.044 194.892 48.214 206.897 C 36.385 218.901 24.438 231.16 16.453 246.008 C 12.46 253.433 9.507 261.472 8.304 269.815 C 7.105 278.161 7.691 286.828 10.549 294.755 C 15.509 308.518 26.98 319.183 39.94 325.931 C 52.904 332.683 67.366 335.937 81.731 338.613 C 107.162 343.347 133.725 346.789 155.648 360.54 C 179.671 375.612 194.965 401.093 215.643 420.512 C 225.98 430.221 237.988 438.564 251.633 442.412 C 258.454 444.334 265.632 445.099 272.676 444.33 C 279.726 443.557 286.634 441.225 292.529 437.285 C 301.545 431.26 307.81 421.783 311.864 411.716 C 315.917 401.649 317.961 390.908 320.1 380.266 C 322.24 369.628 324.53 358.911 329.037 349.041 C 333.543 339.168 340.493 330.083 350.019 324.908 C 357.297 320.949 365.678 319.469 373.948 319.024 C 382.219 318.578 390.512 319.114 398.79 318.912 C 407.072 318.711 415.476 317.736 423.073 314.433 C 426.871 312.781 430.437 310.554 433.448 307.704 C 436.455 304.854 438.899 301.374 440.36 297.496 C 441.905 293.409 442.343 288.933 441.852 284.59 C 441.361 280.243 439.965 276.026 437.982 272.133 C 434.007 264.342 427.785 257.94 421.231 252.159 C 414.677 246.381 407.681 241.072 401.61 234.784 C 395.54 228.496 390.349 221.04 388.346 212.53 C 386.737 205.679 387.277 198.44 389.131 191.653 C 390.984 184.863 394.113 178.488 397.664 172.414 C 404.762 160.269 413.679 149.018 418.46 135.784 C 423.682 121.333 423.56 105.21 419.316 90.439 C 415.069 75.672 406.844 62.221 396.56 50.814 C 383.658 36.507 367.375 25.222 349.346 18.459 C 331.317 11.696 311.556 9.499 292.529 12.441 C 278.195 14.661 264.478 19.696 250.544 23.726 C 236.611 27.753 222.037 30.798 207.662 28.887 Z M 207.662 28.887" fill-opacity="1" fill-rule="nonzero" style="stroke-width: 3px; stroke-linecap: round; stroke: rgb(67, 80, 23);"/>
</svg>
