<?xml version="1.0" encoding="utf-8"?>
<svg zoomAndPan="magnify" preserveAspectRatio="xMidYMid meet" version="1.0" viewBox="5.25 37.08 441.18 376.18" xmlns="http://www.w3.org/2000/svg">
  <path fill="#9059d4" d="M 16.461 113.236 C 4.118 134.759 9.385 162.217 16.258 186.258 C 23.13 210.3 31.258 236.069 23.571 259.837 C 21.245 267.025 17.494 273.862 16.952 281.426 C 15.916 295.865 27.257 308.688 40.214 313.84 C 53.172 318.993 67.481 318.305 81.341 318.017 C 95.204 317.733 109.716 318.094 121.914 324.982 C 146.662 338.964 152.847 373.79 173.943 393.248 C 189.961 408.021 213.031 412.087 234.219 409.134 C 255.408 406.182 275.273 397.014 294.807 387.949 C 323.739 374.523 352.894 360.971 378.671 341.779 C 402.643 323.938 423.782 300.722 434.874 272.242 C 445.969 243.762 445.854 209.585 430.186 183.567 C 417.325 162.217 394.224 145.063 393.533 119.851 C 393.126 105.039 401.016 90.519 398.428 75.945 C 392.523 42.663 347.09 37.66 321.72 41.33 C 291.363 45.726 266.008 63.587 244.82 85.793 C 231.11 100.155 218.145 118.131 197.581 121.026 C 166.94 125.341 135.704 101.991 107.705 92.492 C 77.536 82.253 35.223 80.529 16.461 113.236" fill-opacity="1" fill-rule="nonzero" style="stroke-width: 3px; stroke: rgb(67, 80, 23); stroke-linecap: round;"/>
</svg>
